<svg version="1.1" xmlns="http://www.w3.org/2000/svg" viewBox="0 0 291.19341563786014 315.9183673469388" width="291.19341563786014" height="315.9183673469388">
  <!-- svg-source:excalidraw -->
  
  <defs>
    <style class="style-fonts">
      @font-face {
        font-family: "Virgil";
        src: url("https://excalidraw.com/Virgil.woff2");
      }
      @font-face {
        font-family: "Cascadia";
        src: url("https://excalidraw.com/Cascadia.woff2");
      }
    </style>
  </defs>
  <rect x="0" y="0" width="291.19341563786014" height="315.9183673469388" fill="#ffffff"/><g stroke-linecap="round"><g transform="translate(10.000000000000028 10) rotate(0 -1.4210854715202004e-14 118.20313262939453)"><path d="M0 0 C0 39.4, 0 197.01, 0 236.41 M0 0 C0 39.4, 0 197.01, 0 236.41" stroke="#000000" stroke-width="4" fill="none"/></g></g><mask/><g stroke-linecap="round"><g transform="translate(115.00000000000003 10) rotate(0 0 118.20313262939453)"><path d="M0 0 C0 39.4, 0 197.01, 0 236.41 M0 0 C0 39.4, 0 197.01, 0 236.41" stroke="#000000" stroke-width="4" fill="none"/></g></g><mask/><g stroke-linecap="round"><g transform="translate(11.111111111111143 105.91836734693877) rotate(0 52.5 87.5)" fill-rule="evenodd"><path d="M0 0 C0 0, 0 0, 0 0 M0 0 C0 0, 0 0, 0 0 M0.2 2.82 C3.58 -1.07, 6.96 -4.96, 12.01 -10.76 M0.2 2.82 C2.9 -0.28, 5.6 -3.39, 12.01 -10.76 M-0.26 6.4 C4.61 0.79, 9.49 -4.82, 20.73 -17.75 M-0.26 6.4 C5.96 -0.76, 12.19 -7.92, 20.73 -17.75 M-0.06 9.22 C6.29 1.91, 12.64 -5.4, 24.87 -19.46 M-0.06 9.22 C9.39 -1.66, 18.84 -12.53, 24.87 -19.46 M0.13 12.04 C10.54 0.07, 20.94 -11.9, 28.34 -20.41 M0.13 12.04 C11.28 -0.78, 22.43 -13.61, 28.34 -20.41 M-0.33 15.62 C6.76 7.46, 13.85 -0.69, 32.48 -22.12 M-0.33 15.62 C11.1 2.48, 22.52 -10.66, 32.48 -22.12 M-0.13 18.44 C8.57 8.44, 17.26 -1.57, 35.95 -23.07 M-0.13 18.44 C12.58 3.82, 25.28 -10.79, 35.95 -23.07 M0.07 21.26 C10.68 9.06, 21.29 -3.15, 40.09 -24.78 M0.07 21.26 C10.32 9.47, 20.56 -2.31, 40.09 -24.78 M0.27 24.08 C11.46 11.2, 22.65 -1.67, 42.91 -24.97 M0.27 24.08 C11.74 10.88, 23.22 -2.32, 42.91 -24.97 M-0.19 27.66 C15.17 9.99, 30.53 -7.69, 45.73 -25.17 M-0.19 27.66 C17.52 7.28, 35.23 -13.09, 45.73 -25.17 M0 30.48 C13.83 14.57, 27.66 -1.33, 48.55 -25.37 M0 30.48 C10.22 18.73, 20.43 6.98, 48.55 -25.37 M0.2 33.3 C20.13 10.38, 40.05 -12.54, 50.72 -24.81 M0.2 33.3 C19.54 11.06, 38.87 -11.18, 50.72 -24.81 M-0.26 36.88 C20.83 12.62, 41.91 -11.63, 52.88 -24.25 M-0.26 36.88 C10.51 24.49, 21.28 12.1, 52.88 -24.25 M-0.06 39.7 C14.02 23.5, 28.1 7.3, 55.71 -24.45 M-0.06 39.7 C14.17 23.33, 28.39 6.97, 55.71 -24.45 M0.14 42.52 C18.88 20.95, 37.63 -0.61, 57.87 -23.89 M0.14 42.52 C13.72 26.9, 27.3 11.28, 57.87 -23.89 M-0.32 46.1 C21.27 21.26, 42.85 -3.57, 60.69 -24.09 M-0.32 46.1 C22.46 19.89, 45.23 -6.31, 60.69 -24.09 M-0.12 48.92 C14.52 32.07, 29.17 15.22, 62.86 -23.53 M-0.12 48.92 C16.24 30.09, 32.61 11.26, 62.86 -23.53 M0.07 51.74 C24.82 23.28, 49.56 -5.19, 65.02 -22.98 M0.07 51.74 C17.64 31.53, 35.2 11.33, 65.02 -22.98 M0.27 54.56 C21.79 29.81, 43.31 5.05, 67.19 -22.42 M0.27 54.56 C26.42 24.48, 52.58 -5.61, 67.19 -22.42 M-0.19 58.14 C17.32 38, 34.82 17.86, 68.7 -21.11 M-0.19 58.14 C16.48 38.97, 33.14 19.79, 68.7 -21.11 M0.01 60.96 C16.36 42.15, 32.71 23.35, 70.86 -20.55 M0.01 60.96 C21.61 36.11, 43.21 11.26, 70.86 -20.55 M0.21 63.78 C24.3 36.06, 48.4 8.35, 73.03 -19.99 M0.21 63.78 C25.39 34.81, 50.57 5.84, 73.03 -19.99 M-0.25 67.36 C17.58 46.84, 35.41 26.33, 75.19 -19.43 M-0.25 67.36 C17.95 46.42, 36.14 25.49, 75.19 -19.43 M-0.05 70.18 C15.78 51.96, 31.62 33.74, 76.7 -18.12 M-0.05 70.18 C15.5 52.29, 31.05 34.4, 76.7 -18.12 M0.14 73 C20.01 50.15, 39.87 27.3, 78.87 -17.57 M0.14 73 C16.02 54.74, 31.89 36.48, 78.87 -17.57 M-0.32 76.58 C25.16 47.27, 50.63 17.97, 81.04 -17.01 M-0.32 76.58 C31.84 39.59, 63.99 2.6, 81.04 -17.01 M-0.12 79.4 C18.89 57.53, 37.9 35.66, 82.54 -15.7 M-0.12 79.4 C28.85 46.07, 57.82 12.75, 82.54 -15.7 M0.08 82.22 C27.28 50.93, 54.47 19.65, 84.71 -15.14 M0.08 82.22 C22.87 56, 45.67 29.77, 84.71 -15.14 M0.28 85.04 C31.29 49.36, 62.31 13.67, 86.88 -14.58 M0.28 85.04 C18.84 63.69, 37.4 42.34, 86.88 -14.58 M-0.18 88.62 C29.81 54.11, 59.81 19.61, 88.39 -13.27 M-0.18 88.62 C29.3 54.7, 58.78 20.79, 88.39 -13.27 M0.01 91.44 C23.86 64.01, 47.7 36.58, 90.55 -12.71 M0.01 91.44 C25.6 62.01, 51.18 32.58, 90.55 -12.71 M0.21 94.26 C28.7 61.49, 57.19 28.72, 92.06 -11.4 M0.21 94.26 C23.75 67.18, 47.29 40.1, 92.06 -11.4 M-0.25 97.84 C19.39 75.24, 39.03 52.65, 93.57 -10.09 M-0.25 97.84 C19.17 75.5, 38.59 53.16, 93.57 -10.09 M-0.05 100.66 C20.73 76.75, 41.51 52.85, 95.08 -8.78 M-0.05 100.66 C25.89 70.82, 51.83 40.98, 95.08 -8.78 M0.15 103.48 C28.84 70.48, 57.52 37.47, 96.59 -7.46 M0.15 103.48 C19.6 81.1, 39.05 58.72, 96.59 -7.46 M-0.31 107.06 C27.79 74.73, 55.89 42.4, 98.75 -6.91 M-0.31 107.06 C37.09 64.04, 74.48 21.02, 98.75 -6.91 M-0.11 109.88 C26.65 79.09, 53.42 48.29, 100.26 -5.59 M-0.11 109.88 C24.34 81.75, 48.79 53.62, 100.26 -5.59 M0.08 112.7 C37.04 70.19, 73.99 27.67, 101.77 -4.28 M0.08 112.7 C33.51 74.24, 66.95 35.78, 101.77 -4.28 M0.28 115.52 C30.29 80.99, 60.31 46.47, 102.63 -2.21 M0.28 115.52 C28.11 83.51, 55.93 51.5, 102.63 -2.21 M-0.18 119.1 C36.63 76.76, 73.43 34.42, 104.14 -0.9 M-0.18 119.1 C25.59 89.46, 51.35 59.82, 104.14 -0.9 M0.02 121.92 C41.33 74.39, 82.64 26.87, 105.64 0.41 M0.02 121.92 C41.03 74.74, 82.05 27.55, 105.64 0.41 M0.22 124.74 C41.08 77.73, 81.94 30.72, 106.5 2.48 M0.22 124.74 C23.09 98.43, 45.96 72.12, 106.5 2.48 M-0.24 128.32 C22.39 102.28, 45.02 76.25, 106.7 5.3 M-0.24 128.32 C27.26 96.68, 54.75 65.05, 106.7 5.3 M-0.04 131.14 C23.95 103.54, 47.94 75.94, 104.92 10.38 M-0.04 131.14 C29.23 97.47, 58.5 63.79, 104.92 10.38 M0.15 133.96 C25.73 104.54, 51.3 75.12, 105.12 13.21 M0.15 133.96 C32.18 97.11, 64.21 60.27, 105.12 13.21 M1.01 136.03 C31.53 100.91, 62.05 65.8, 105.32 16.03 M1.01 136.03 C26.67 106.51, 52.33 76.99, 105.32 16.03 M0.55 139.6 C22.82 113.98, 45.09 88.36, 104.86 19.6 M0.55 139.6 C34.09 101.02, 67.63 62.43, 104.86 19.6 M0.74 142.42 C23.88 115.81, 47.02 89.19, 105.06 22.42 M0.74 142.42 C30.7 107.97, 60.65 73.51, 105.06 22.42 M0.29 146 C30.22 111.57, 60.15 77.13, 105.26 25.25 M0.29 146 C27.38 114.83, 54.48 83.65, 105.26 25.25 M-0.83 150.33 C30.92 113.81, 62.67 77.29, 105.45 28.07 M-0.83 150.33 C34.8 109.34, 70.44 68.35, 105.45 28.07 M0.02 152.4 C27.31 121.01, 54.59 89.63, 104.99 31.64 M0.02 152.4 C24.08 124.72, 48.14 97.04, 104.99 31.64 M0.88 154.46 C26.28 125.25, 51.68 96.03, 105.19 34.47 M0.88 154.46 C30.7 120.16, 60.53 85.85, 105.19 34.47 M1.07 157.29 C40.36 112.09, 79.65 66.9, 105.39 37.29 M1.07 157.29 C33.56 119.91, 66.05 82.54, 105.39 37.29 M1.93 159.35 C23.94 134.03, 45.96 108.7, 104.93 40.86 M1.93 159.35 C42.83 112.3, 83.72 65.26, 104.93 40.86 M2.13 162.17 C34.23 125.24, 66.33 88.31, 105.13 43.68 M2.13 162.17 C37.57 121.4, 73.02 80.62, 105.13 43.68 M2.98 164.24 C23.92 140.15, 44.86 116.07, 105.32 46.51 M2.98 164.24 C32.58 130.19, 62.18 96.13, 105.32 46.51 M3.83 166.31 C42.12 122.26, 80.41 78.22, 104.87 50.08 M3.83 166.31 C37.08 128.06, 70.32 89.82, 104.87 50.08 M4.69 168.37 C29.64 139.66, 54.6 110.95, 105.06 52.9 M4.69 168.37 C39.36 128.49, 74.04 88.6, 105.06 52.9 M5.54 170.44 C38.43 132.61, 71.32 94.77, 105.26 55.73 M5.54 170.44 C28.52 144.01, 51.5 117.57, 105.26 55.73 M6.39 172.51 C27.79 147.89, 49.19 123.27, 105.46 58.55 M6.39 172.51 C37.22 137.05, 68.05 101.58, 105.46 58.55 M7.25 174.58 C41.76 134.87, 76.28 95.16, 105 62.12 M7.25 174.58 C43.91 132.4, 80.57 90.23, 105 62.12 M8.1 176.64 C28.91 152.7, 49.72 128.76, 105.2 64.95 M8.1 176.64 C36.69 143.75, 65.28 110.86, 105.2 64.95 M8.95 178.71 C35.49 148.18, 62.04 117.64, 105.39 67.77 M8.95 178.71 C33.27 150.74, 57.58 122.76, 105.39 67.77 M10.46 180.02 C47.18 137.78, 83.9 95.53, 104.93 71.34 M10.46 180.02 C45.02 140.27, 79.58 100.51, 104.93 71.34 M11.97 181.33 C45.51 142.75, 79.05 104.17, 105.13 74.16 M11.97 181.33 C41.17 147.74, 70.38 114.15, 105.13 74.16 M13.48 182.65 C43.03 148.65, 72.59 114.65, 105.33 76.99 M13.48 182.65 C46.38 144.8, 79.28 106.95, 105.33 76.99 M14.33 184.71 C42.3 152.55, 70.26 120.38, 104.87 80.56 M14.33 184.71 C48.13 145.83, 81.93 106.95, 104.87 80.56 M15.84 186.02 C36.69 162.05, 57.53 138.07, 105.07 83.38 M15.84 186.02 C39.68 158.6, 63.52 131.18, 105.07 83.38 M17.35 187.34 C40.26 160.98, 63.17 134.63, 105.26 86.21 M17.35 187.34 C35.67 166.26, 54 145.18, 105.26 86.21 M19.52 187.89 C52.34 150.14, 85.15 112.39, 105.46 89.03 M19.52 187.89 C41.07 163.11, 62.61 138.32, 105.46 89.03 M21.03 189.21 C53.92 151.37, 86.8 113.54, 105 92.6 M21.03 189.21 C51.09 154.62, 81.16 120.03, 105 92.6 M22.54 190.52 C44.16 165.64, 65.79 140.76, 105.2 95.42 M22.54 190.52 C41.5 168.71, 60.45 146.9, 105.2 95.42 M24.7 191.08 C50.19 161.76, 75.67 132.44, 105.4 98.25 M24.7 191.08 C50.84 161.01, 76.98 130.94, 105.4 98.25 M26.21 192.39 C42.39 173.77, 58.58 155.15, 104.94 101.82 M26.21 192.39 C48.73 166.48, 71.25 140.57, 104.94 101.82 M28.38 192.94 C50.22 167.82, 72.06 142.7, 105.14 104.64 M28.38 192.94 C56.8 160.24, 85.23 127.54, 105.14 104.64 M29.89 194.26 C58.84 160.95, 87.79 127.65, 105.33 107.47 M29.89 194.26 C49.98 171.14, 70.08 148.02, 105.33 107.47 M32.05 194.81 C60.46 162.14, 88.87 129.46, 105.53 110.29 M32.05 194.81 C55.86 167.42, 79.67 140.03, 105.53 110.29 M34.22 195.37 C48.66 178.76, 63.1 162.15, 105.07 113.86 M34.22 195.37 C61.02 164.54, 87.83 133.7, 105.07 113.86 M36.38 195.93 C60.39 168.32, 84.39 140.71, 105.27 116.68 M36.38 195.93 C62.17 166.27, 87.95 136.61, 105.27 116.68 M38.55 196.49 C59.35 172.55, 80.16 148.62, 105.47 119.51 M38.55 196.49 C64.8 166.28, 91.06 136.08, 105.47 119.51 M40.06 197.8 C61.96 172.6, 83.87 147.4, 105.66 122.33 M40.06 197.8 C57.96 177.2, 75.86 156.61, 105.66 122.33 M42.22 198.36 C66.63 170.28, 91.04 142.2, 105.21 125.9 M42.22 198.36 C57.43 180.86, 72.64 163.36, 105.21 125.9 M44.39 198.91 C65.4 174.75, 86.41 150.58, 105.4 128.73 M44.39 198.91 C64.77 175.47, 85.15 152.03, 105.4 128.73 M45.9 200.23 C66.8 176.18, 87.7 152.14, 104.94 132.3 M45.9 200.23 C58.97 185.19, 72.03 170.16, 104.94 132.3 M48.72 200.03 C61.05 185.84, 73.39 171.65, 105.14 135.12 M48.72 200.03 C61.95 184.81, 75.18 169.59, 105.14 135.12 M50.89 200.59 C70.91 177.55, 90.93 154.52, 105.34 137.94 M50.89 200.59 C72.11 176.17, 93.33 151.76, 105.34 137.94 M53.05 201.14 C65.13 187.24, 77.22 173.35, 104.88 141.52 M53.05 201.14 C64.12 188.41, 75.18 175.69, 104.88 141.52 M55.87 200.95 C66.89 188.27, 77.91 175.59, 105.08 144.34 M55.87 200.95 C73.95 180.16, 92.02 159.36, 105.08 144.34 M59.35 199.99 C73.21 184.05, 87.06 168.12, 105.27 147.16 M59.35 199.99 C71.88 185.58, 84.41 171.16, 105.27 147.16 M62.17 199.8 C76.85 182.91, 91.54 166.01, 103.5 152.25 M62.17 199.8 C76.1 183.77, 90.03 167.75, 103.5 152.25 M65.65 198.84 C79.45 182.96, 93.26 167.08, 102.39 156.58 M65.65 198.84 C79.49 182.92, 93.34 166.99, 102.39 156.58 M69.13 197.89 C76.43 189.5, 83.72 181.1, 100.62 161.67 M69.13 197.89 C76.82 189.04, 84.52 180.18, 100.62 161.67 M74.57 194.68 C80.5 187.86, 86.42 181.04, 98.85 166.75 M74.57 194.68 C80.69 187.64, 86.81 180.59, 98.85 166.75 M79.36 192.21 C86 184.58, 92.63 176.95, 97.73 171.08 M79.36 192.21 C86.66 183.82, 93.97 175.42, 97.73 171.08 M83.5 190.51 C87.65 185.73, 91.8 180.95, 95.96 176.17 M83.5 190.51 C88.33 184.94, 93.17 179.38, 95.96 176.17 M15.23 185.2 C15.23 185.2, 15.23 185.2, 15.23 185.2 M15.23 185.2 C15.23 185.2, 15.23 185.2, 15.23 185.2 M24.09 190.25 C19.69 186.43, 15.29 182.61, 9.75 177.79 M24.09 190.25 C20.7 187.31, 17.31 184.36, 9.75 177.79 M30.69 193.34 C21.42 185.28, 12.15 177.22, 7.29 173 M30.69 193.34 C24.02 187.54, 17.34 181.74, 7.29 173 M35.02 194.45 C27.38 187.81, 19.74 181.17, 6.34 169.52 M35.02 194.45 C28.96 189.18, 22.9 183.92, 6.34 169.52 M39.35 195.57 C28.77 186.37, 18.2 177.18, 4.63 165.39 M39.35 195.57 C30.73 188.07, 22.11 180.58, 4.63 165.39 M45.19 197.99 C30.37 185.11, 15.55 172.23, 2.93 161.25 M45.19 197.99 C32.95 187.35, 20.71 176.71, 2.93 161.25 M48.77 198.45 C36.07 187.41, 23.37 176.38, 1.97 157.78 M48.77 198.45 C34.07 185.68, 19.37 172.9, 1.97 157.78 M52.34 198.91 C35.09 183.92, 17.84 168.92, 1.02 154.3 M52.34 198.91 C41.54 189.52, 30.73 180.12, 1.02 154.3 M55.92 199.37 C34.05 180.36, 12.18 161.35, 0.07 150.82 M55.92 199.37 C44.57 189.51, 33.23 179.65, 0.07 150.82 M57.98 198.52 C44.23 186.56, 30.48 174.61, -0.13 148 M57.98 198.52 C41.95 184.58, 25.92 170.64, -0.13 148 M60.81 198.32 C36.79 177.44, 12.78 156.57, 0.43 145.83 M60.81 198.32 C36.75 177.41, 12.7 156.5, 0.43 145.83 M63.63 198.12 C44.39 181.39, 25.14 164.67, 0.23 143.01 M63.63 198.12 C41.44 178.84, 19.26 159.55, 0.23 143.01 M65.69 197.27 C48.82 182.6, 31.94 167.92, 0.79 140.85 M65.69 197.27 C43.28 177.78, 20.87 158.3, 0.79 140.85 M67.76 196.41 C52.6 183.24, 37.45 170.06, 0.59 138.03 M67.76 196.41 C50.34 181.27, 32.92 166.13, 0.59 138.03 M69.83 195.56 C43.02 172.26, 16.21 148.95, 0.4 135.2 M69.83 195.56 C52.33 180.35, 34.83 165.14, 0.4 135.2 M71.9 194.71 C48.28 174.18, 24.65 153.64, 0.2 132.38 M71.9 194.71 C43.69 170.19, 15.48 145.66, 0.2 132.38 M74.72 194.51 C58.2 180.15, 41.68 165.8, 0 129.56 M74.72 194.51 C53.13 175.74, 31.54 156.97, 0 129.56 M76.78 193.66 C47.63 168.31, 18.48 142.97, -0.2 126.74 M76.78 193.66 C53.38 173.31, 29.98 152.97, -0.2 126.74 M78.1 192.15 C58.86 175.42, 39.62 158.7, 0.36 124.57 M78.1 192.15 C47.85 165.85, 17.59 139.55, 0.36 124.57 M80.16 191.29 C50.18 165.23, 20.19 139.16, 0.16 121.75 M80.16 191.29 C55.75 170.07, 31.33 148.84, 0.16 121.75 M82.23 190.44 C50.51 162.87, 18.8 135.3, -0.03 118.93 M82.23 190.44 C61.82 172.7, 41.41 154.96, -0.03 118.93 M83.54 188.93 C53.66 162.96, 23.78 136.98, -0.23 116.11 M83.54 188.93 C60.6 168.99, 37.65 149.04, -0.23 116.11 M85.61 188.08 C52.11 158.96, 18.61 129.84, 0.33 113.94 M85.61 188.08 C57.99 164.07, 30.38 140.07, 0.33 113.94 M86.92 186.57 C69.51 171.43, 52.09 156.29, 0.13 111.12 M86.92 186.57 C65.29 167.76, 43.65 148.96, 0.13 111.12 M88.99 185.72 C65.44 165.25, 41.89 144.78, -0.07 108.3 M88.99 185.72 C67.9 167.39, 46.81 149.06, -0.07 108.3 M90.3 184.21 C70.32 166.84, 50.35 149.48, -0.27 105.48 M90.3 184.21 C69.19 165.86, 48.08 147.51, -0.27 105.48 M91.61 182.7 C70.34 164.2, 49.06 145.71, 0.29 103.31 M91.61 182.7 C57.82 153.32, 24.03 123.95, 0.29 103.31 M92.92 181.19 C58.78 151.51, 24.64 121.83, 0.09 100.49 M92.92 181.19 C56.75 149.75, 20.58 118.3, 0.09 100.49 M94.24 179.68 C59.46 149.45, 24.69 119.22, -0.1 97.67 M94.24 179.68 C68.85 157.61, 43.47 135.55, -0.1 97.67 M94.79 177.51 C72.8 158.4, 50.82 139.28, -0.3 94.85 M94.79 177.51 C71.43 157.2, 48.07 136.9, -0.3 94.85 M95.35 175.35 C59.32 144.02, 23.28 112.7, 0.26 92.68 M95.35 175.35 C72.35 155.35, 49.34 135.35, 0.26 92.68 M96.66 173.84 C73.75 153.92, 50.83 133.99, 0.06 89.86 M96.66 173.84 C68.61 149.45, 40.55 125.06, 0.06 89.86 M97.22 171.67 C76.87 153.98, 56.51 136.29, -0.14 87.04 M97.22 171.67 C62.26 141.28, 27.31 110.9, -0.14 87.04 M97.78 169.51 C73.47 148.38, 49.17 127.25, 0.42 84.87 M97.78 169.51 C61.2 137.71, 24.62 105.91, 0.42 84.87 M98.33 167.34 C74.63 146.73, 50.92 126.13, 0.22 82.05 M98.33 167.34 C73.46 145.72, 48.59 124.1, 0.22 82.05 M98.89 165.18 C62.32 133.39, 25.75 101.6, 0.03 79.23 M98.89 165.18 C67.68 138.04, 36.46 110.91, 0.03 79.23 M99.45 163.01 C69.89 137.31, 40.33 111.62, -0.17 76.41 M99.45 163.01 C67.49 135.23, 35.54 107.45, -0.17 76.41 M100.01 160.84 C66.46 131.68, 32.91 102.52, 0.39 74.24 M100.01 160.84 C71.39 135.97, 42.78 111.1, 0.39 74.24 M100.56 158.68 C77.28 138.44, 53.99 118.19, 0.19 71.42 M100.56 158.68 C68.56 130.86, 36.55 103.03, 0.19 71.42 M101.88 157.17 C68.59 128.23, 35.31 99.3, -0.01 68.6 M101.88 157.17 C78.49 136.84, 55.11 116.51, -0.01 68.6 M102.43 155 C67.28 124.44, 32.12 93.88, -0.21 65.78 M102.43 155 C64.63 122.14, 26.83 89.28, -0.21 65.78 M102.99 152.84 C66.71 121.3, 30.42 89.75, 0.35 63.61 M102.99 152.84 C77.91 131.04, 52.83 109.24, 0.35 63.61 M103.55 150.67 C66.23 118.23, 28.9 85.78, 0.15 60.79 M103.55 150.67 C67.15 119.03, 30.75 87.39, 0.15 60.79 M104.11 148.51 C76.13 124.19, 48.16 99.87, -0.04 57.97 M104.11 148.51 C62.87 112.66, 21.63 76.81, -0.04 57.97 M104.66 146.34 C77.66 122.87, 50.65 99.39, -0.24 55.15 M104.66 146.34 C71.55 117.56, 38.43 88.77, -0.24 55.15 M105.22 144.18 C67.37 111.27, 29.52 78.37, 0.32 52.98 M105.22 144.18 C72.59 115.81, 39.95 87.44, 0.32 52.98 M105.02 141.36 C79.9 119.51, 54.77 97.67, 0.12 50.16 M105.02 141.36 C77 116.99, 48.97 92.63, 0.12 50.16 M104.83 138.53 C67.42 106.02, 30.02 73.51, -0.08 47.34 M104.83 138.53 C65.07 103.97, 25.3 69.41, -0.08 47.34 M105.38 136.37 C68.16 104.01, 30.93 71.65, -0.28 44.52 M105.38 136.37 C65.55 101.74, 25.72 67.12, -0.28 44.52 M105.19 133.55 C82.15 113.52, 59.11 93.49, 0.28 42.35 M105.19 133.55 C68.31 101.49, 31.44 69.44, 0.28 42.35 M104.99 130.73 C75.77 105.33, 46.55 79.93, 0.08 39.53 M104.99 130.73 C65.31 96.24, 25.64 61.75, 0.08 39.53 M105.55 128.56 C68.41 96.28, 31.28 64, -0.11 36.71 M105.55 128.56 C69.32 97.07, 33.1 65.58, -0.11 36.71 M105.35 125.74 C69.87 94.9, 34.39 64.06, 0.44 34.55 M105.35 125.74 C66.92 92.34, 28.5 58.93, 0.44 34.55 M105.15 122.92 C64.15 87.27, 23.14 51.63, 0.25 31.72 M105.15 122.92 C81.06 101.97, 56.96 81.02, 0.25 31.72 M105.71 120.75 C75.18 94.21, 44.65 67.67, 0.05 28.9 M105.71 120.75 C63.52 84.08, 21.34 47.41, 0.05 28.9 M106.27 118.59 C83.47 98.76, 60.66 78.94, -0.15 26.08 M106.27 118.59 C79.51 95.33, 52.76 72.07, -0.15 26.08 M106.07 115.76 C71.63 85.83, 37.19 55.89, 0.41 23.92 M106.07 115.76 C74.62 88.43, 43.17 61.09, 0.41 23.92 M105.87 112.94 C70.42 82.13, 34.98 51.31, 0.21 21.09 M105.87 112.94 C83.71 93.68, 61.56 74.42, 0.21 21.09 M106.43 110.78 C76.45 84.71, 46.46 58.65, 0.02 18.27 M106.43 110.78 C80.42 88.17, 54.41 65.55, 0.02 18.27 M106.23 107.96 C73.68 79.66, 41.12 51.36, -0.18 15.45 M106.23 107.96 C77.62 83.09, 49.01 58.22, -0.18 15.45 M106.04 105.13 C82.1 84.33, 58.17 63.52, 0.38 13.29 M106.04 105.13 C65.34 69.76, 24.65 34.39, 0.38 13.29 M105.84 102.31 C72.61 73.43, 39.39 44.55, 0.18 10.46 M105.84 102.31 C68.27 69.65, 30.69 36.99, 0.18 10.46 M106.4 100.15 C77.89 75.37, 49.39 50.59, -0.02 7.64 M106.4 100.15 C82.16 79.08, 57.93 58.01, -0.02 7.64 M106.2 97.33 C64.98 61.49, 23.75 25.66, -0.22 4.82 M106.2 97.33 C67.97 64.1, 29.75 30.87, -0.22 4.82 M106 94.5 C68.93 62.28, 31.85 30.05, 0.34 2.66 M106 94.5 C80.35 72.21, 54.7 49.91, 0.34 2.66 M105.8 91.68 C64.74 55.99, 23.68 20.29, 0.14 -0.17 M105.8 91.68 C70.79 61.24, 35.77 30.8, 0.14 -0.17 M106.36 89.52 C79.27 65.97, 52.19 42.43, 1.46 -1.68 M106.36 89.52 C78.74 65.51, 51.13 41.5, 1.46 -1.68 M106.16 86.7 C83.46 66.96, 60.76 47.23, 2.77 -3.18 M106.16 86.7 C76.54 60.94, 46.91 35.19, 2.77 -3.18 M105.97 83.87 C84.58 65.28, 63.19 46.69, 4.08 -4.69 M105.97 83.87 C76.96 58.66, 47.96 33.45, 4.08 -4.69 M105.77 81.05 C83.79 61.94, 61.8 42.83, 5.39 -6.2 M105.77 81.05 C85.57 63.49, 65.36 45.93, 5.39 -6.2 M106.33 78.89 C80.25 56.22, 54.18 33.56, 7.46 -7.06 M106.33 78.89 C80.12 56.11, 53.92 33.33, 7.46 -7.06 M106.13 76.07 C70.75 45.31, 35.38 14.56, 8.77 -8.57 M106.13 76.07 C85.21 57.88, 64.29 39.69, 8.77 -8.57 M105.93 73.24 C75.77 47.03, 45.62 20.81, 10.08 -10.08 M105.93 73.24 C74.79 46.18, 43.66 19.11, 10.08 -10.08 M105.73 70.42 C80.59 48.57, 55.45 26.71, 11.4 -11.59 M105.73 70.42 C84.11 51.63, 62.49 32.83, 11.4 -11.59 M106.29 68.26 C78.65 44.23, 51.02 20.21, 12.71 -13.09 M106.29 68.26 C73.8 40.01, 41.31 11.77, 12.71 -13.09 M106.09 65.44 C71.41 35.29, 36.73 5.14, 14.77 -13.95 M106.09 65.44 C77.94 40.96, 49.78 16.48, 14.77 -13.95 M105.9 62.61 C72.14 33.27, 38.38 3.92, 16.09 -15.46 M105.9 62.61 C72 33.15, 38.1 3.68, 16.09 -15.46 M105.7 59.79 C71.38 29.95, 37.05 0.12, 18.15 -16.31 M105.7 59.79 C81.26 38.54, 56.81 17.29, 18.15 -16.31 M106.26 57.63 C74.67 30.16, 43.07 2.7, 19.47 -17.82 M106.26 57.63 C86.84 40.75, 67.43 23.87, 19.47 -17.82 M106.06 54.81 C86.47 37.77, 66.88 20.74, 20.78 -19.33 M106.06 54.81 C77.83 30.27, 49.61 5.73, 20.78 -19.33 M105.86 51.98 C80.57 29.99, 55.27 8.01, 22.84 -20.18 M105.86 51.98 C84.58 33.48, 63.29 14.97, 22.84 -20.18 M105.67 49.16 C84.94 31.15, 64.22 13.13, 24.91 -21.04 M105.67 49.16 C88.27 34.04, 70.87 18.91, 24.91 -21.04 M106.22 47 C83.98 27.66, 61.74 8.33, 26.98 -21.89 M106.22 47 C89.69 32.62, 73.15 18.25, 26.98 -21.89 M106.03 44.18 C84.92 25.83, 63.82 7.48, 29.05 -22.74 M106.03 44.18 C87.02 27.66, 68.02 11.14, 29.05 -22.74 M105.83 41.35 C90.15 27.73, 74.48 14.1, 31.87 -22.94 M105.83 41.35 C78.03 17.19, 50.22 -6.98, 31.87 -22.94 M105.63 38.53 C82.61 18.52, 59.58 -1.5, 33.93 -23.79 M105.63 38.53 C83.98 19.71, 62.34 0.9, 33.93 -23.79 M106.19 36.37 C88.4 20.9, 70.61 5.44, 36.76 -23.99 M106.19 36.37 C91.18 23.32, 76.17 10.27, 36.76 -23.99 M105.99 33.55 C87.59 17.55, 69.18 1.55, 38.82 -24.84 M105.99 33.55 C91.22 20.7, 76.44 7.86, 38.82 -24.84 M105.79 30.72 C92.26 18.95, 78.72 7.19, 40.89 -25.7 M105.79 30.72 C83.08 10.98, 60.37 -8.76, 40.89 -25.7 M106.35 28.56 C90.91 15.13, 75.47 1.71, 43.71 -25.89 M106.35 28.56 C93.65 17.52, 80.95 6.48, 43.71 -25.89 M106.15 25.74 C88.17 10.1, 70.18 -5.53, 46.53 -26.09 M106.15 25.74 C84.68 7.07, 63.2 -11.61, 46.53 -26.09 M105.96 22.91 C83.87 3.72, 61.79 -15.48, 49.35 -26.29 M105.96 22.91 C93.82 12.36, 81.68 1.81, 49.35 -26.29 M105.76 20.09 C94.9 10.65, 84.04 1.21, 52.93 -25.83 M105.76 20.09 C85.02 2.06, 64.28 -15.96, 52.93 -25.83 M106.32 17.93 C91.69 5.21, 77.05 -7.51, 56.51 -25.37 M106.32 17.93 C87.29 1.39, 68.27 -15.15, 56.51 -25.37 M106.12 15.11 C95.63 5.99, 85.14 -3.13, 60.08 -24.91 M106.12 15.11 C89.78 0.9, 73.44 -13.31, 60.08 -24.91 M105.92 12.28 C88.84 -2.56, 71.76 -17.41, 61.39 -26.42 M105.92 12.28 C88.36 -2.98, 70.8 -18.25, 61.39 -26.42 M105.72 9.46 C93.41 -1.24, 81.1 -11.95, 66.48 -24.65 M105.72 9.46 C93.25 -1.38, 80.77 -12.23, 66.48 -24.65 M105.53 6.64 C95.02 -2.49, 84.52 -11.62, 73.07 -21.57 M105.53 6.64 C95.68 -1.92, 85.82 -10.49, 73.07 -21.57 M106.08 4.48 C99.59 -1.17, 93.1 -6.81, 79.67 -18.49 M106.08 4.48 C97.78 -2.74, 89.47 -9.96, 79.67 -18.49 M105.89 1.65 C101.5 -2.16, 97.11 -5.97, 85.51 -16.06 M105.89 1.65 C99.29 -4.08, 92.69 -9.81, 85.51 -16.06" stroke="#4c6ef5" stroke-width="0.25" fill="none"/><path d="M0 0 C2.5 -2.5, 10.83 -11.67, 15 -15 C19.17 -18.33, 20.83 -18.33, 25 -20 C29.17 -21.67, 34.17 -24.17, 40 -25 C45.83 -25.83, 52.69 -26.56, 60 -25 C67.31 -23.44, 78.24 -18.02, 83.89 -15.63 C89.54 -13.23, 90.37 -13.23, 93.89 -10.63 C97.41 -8.02, 103.15 -3.44, 105 0 C106.85 3.44, 105 -1.67, 105 10 C105 21.67, 105 49.17, 105 70 C105 90.83, 105.19 121.77, 105 135 C104.81 148.23, 104.91 144.48, 103.89 149.38 C102.87 154.27, 101.2 158.44, 98.89 164.38 C96.57 170.31, 97.31 179.06, 90 185 C82.69 190.94, 67.5 200, 55 200 C42.5 200, 24.17 192.5, 15 185 C5.83 177.5, 2.5 163.33, 0 155 C-2.5 146.67, 0 144.17, 0 135 C0 125.83, 0 111.67, 0 100 C0 88.33, 0 77.5, 0 65 C0 52.5, 0 35.83, 0 25 C0 14.17, 0 4.17, 0 0 M0 0 C2.5 -2.5, 10.83 -11.67, 15 -15 C19.17 -18.33, 20.83 -18.33, 25 -20 C29.17 -21.67, 34.17 -24.17, 40 -25 C45.83 -25.83, 52.69 -26.56, 60 -25 C67.31 -23.44, 78.24 -18.02, 83.89 -15.63 C89.54 -13.23, 90.37 -13.23, 93.89 -10.63 C97.41 -8.02, 103.15 -3.44, 105 0 C106.85 3.44, 105 -1.67, 105 10 C105 21.67, 105 49.17, 105 70 C105 90.83, 105.19 121.77, 105 135 C104.81 148.23, 104.91 144.48, 103.89 149.38 C102.87 154.27, 101.2 158.44, 98.89 164.38 C96.57 170.31, 97.31 179.06, 90 185 C82.69 190.94, 67.5 200, 55 200 C42.5 200, 24.17 192.5, 15 185 C5.83 177.5, 2.5 163.33, 0 155 C-2.5 146.67, 0 144.17, 0 135 C0 125.83, 0 111.67, 0 100 C0 88.33, 0 77.5, 0 65 C0 52.5, 0 35.83, 0 25 C0 14.17, 0 4.17, 0 0" stroke="#000000" stroke-width="0.5" fill="none"/></g></g><mask/><g stroke-linecap="round"><g transform="translate(10.000000000000028 245) rotate(0 52.5 30)"><path d="M0 0 C1.67 5.83, 5 25.83, 10 35 C15 44.17, 23.33 50.83, 30 55 C36.67 59.17, 45 59.17, 50 60 C55 60.83, 55 60.83, 60 60 C65 59.17, 74.17 58.33, 80 55 C85.83 51.67, 91.67 45, 95 40 C98.33 35, 98.33 31.67, 100 25 C101.67 18.33, 104.17 4.17, 105 0 M0 0 C1.67 5.83, 5 25.83, 10 35 C15 44.17, 23.33 50.83, 30 55 C36.67 59.17, 45 59.17, 50 60 C55 60.83, 55 60.83, 60 60 C65 59.17, 74.17 58.33, 80 55 C85.83 51.67, 91.67 45, 95 40 C98.33 35, 98.33 31.67, 100 25 C101.67 18.33, 104.17 4.17, 105 0" stroke="#000000" stroke-width="4" fill="none"/></g></g><mask/><g stroke-linecap="round"><g transform="translate(175.00000000000006 10) rotate(0 -1.4210854715202004e-14 118.20313262939453)"><path d="M0 0 C0 39.4, 0 197.01, 0 236.41 M0 0 C0 39.4, 0 197.01, 0 236.41" stroke="#000000" stroke-width="4" fill="none"/></g></g><mask/><g stroke-linecap="round"><g transform="translate(280.00000000000006 10) rotate(0 0 118.20313262939453)"><path d="M0 0 C0 39.4, 0 197.01, 0 236.41 M0 0 C0 39.4, 0 197.01, 0 236.41" stroke="#000000" stroke-width="4" fill="none"/></g></g><mask/><g stroke-linecap="round"><g transform="translate(175.00000000000003 75) rotate(0 53.05555555555557 115.3125)" fill-rule="evenodd"><path d="M0 0 C0 0, 0 0, 0 0 M0 0 C0 0, 0 0, 0 0 M0.2 2.82 C0.53 2.44, 0.86 2.06, 1.51 1.31 M0.2 2.82 C0.55 2.42, 0.9 2.02, 1.51 1.31 M0.39 5.64 C1.41 4.48, 2.43 3.31, 3.02 2.62 M0.39 5.64 C0.93 5.02, 1.47 4.4, 3.02 2.62 M-0.06 9.22 C1.44 7.49, 2.94 5.76, 4.53 3.94 M-0.06 9.22 C1.32 7.63, 2.7 6.04, 4.53 3.94 M0.13 12.04 C2.68 9.12, 5.22 6.19, 6.69 4.49 M0.13 12.04 C2 9.89, 3.87 7.74, 6.69 4.49 M0.33 14.86 C3.44 11.29, 6.54 7.71, 8.2 5.81 M0.33 14.86 C2.42 12.46, 4.51 10.05, 8.2 5.81 M0.53 17.68 C3.37 14.41, 6.22 11.14, 9.71 7.12 M0.53 17.68 C3.33 14.46, 6.14 11.23, 9.71 7.12 M0.07 21.26 C2.91 17.99, 5.76 14.72, 11.22 8.43 M0.07 21.26 C4.45 16.22, 8.83 11.18, 11.22 8.43 M0.27 24.08 C4.47 19.25, 8.66 14.42, 12.73 9.74 M0.27 24.08 C3 20.94, 5.73 17.8, 12.73 9.74 M0.46 26.9 C4.22 22.59, 7.97 18.27, 14.24 11.05 M0.46 26.9 C5.32 21.31, 10.18 15.72, 14.24 11.05 M0.66 29.72 C3.89 26.01, 7.12 22.3, 15.75 12.37 M0.66 29.72 C3.9 26, 7.14 22.28, 15.75 12.37 M0.2 33.3 C6.82 25.69, 13.44 18.07, 17.92 12.92 M0.2 33.3 C4.68 28.15, 9.16 22.99, 17.92 12.92 M0.4 36.12 C5.14 30.67, 9.88 25.21, 19.43 14.24 M0.4 36.12 C6.45 29.16, 12.51 22.19, 19.43 14.24 M0.6 38.94 C5.64 33.14, 10.69 27.33, 20.93 15.55 M0.6 38.94 C5.45 33.36, 10.3 27.78, 20.93 15.55 M0.79 41.77 C7.58 33.96, 14.36 26.16, 22.44 16.86 M0.79 41.77 C9.33 31.95, 17.86 22.14, 22.44 16.86 M0.99 44.59 C8.97 35.41, 16.95 26.23, 23.95 18.17 M0.99 44.59 C7.7 36.87, 14.41 29.15, 23.95 18.17 M0.53 48.16 C6.64 41.13, 12.76 34.1, 26.12 18.73 M0.53 48.16 C9.31 38.06, 18.1 27.96, 26.12 18.73 M0.73 50.98 C8.42 42.14, 16.11 33.3, 27.63 20.04 M0.73 50.98 C7.03 43.74, 13.33 36.49, 27.63 20.04 M0.93 53.81 C7.18 46.61, 13.44 39.42, 29.14 21.35 M0.93 53.81 C9.52 43.92, 18.12 34.03, 29.14 21.35 M1.12 56.63 C8.37 48.29, 15.62 39.96, 31.3 21.91 M1.12 56.63 C10.84 45.46, 20.55 34.28, 31.3 21.91 M0.67 60.2 C7.87 51.91, 15.08 43.62, 33.47 22.47 M0.67 60.2 C9.02 50.59, 17.38 40.97, 33.47 22.47 M0.86 63.03 C13.02 49.04, 25.17 35.06, 35.63 23.03 M0.86 63.03 C9.57 53.01, 18.27 43, 35.63 23.03 M1.06 65.85 C13.82 51.17, 26.57 36.5, 37.14 24.34 M1.06 65.85 C8.55 57.24, 16.03 48.62, 37.14 24.34 M1.26 68.67 C13.28 54.84, 25.3 41.02, 39.31 24.9 M1.26 68.67 C14.67 53.24, 28.08 37.81, 39.31 24.9 M0.8 72.25 C13.04 58.16, 25.29 44.07, 40.82 26.21 M0.8 72.25 C9.36 62.39, 17.93 52.54, 40.82 26.21 M1 75.07 C9.67 65.09, 18.34 55.12, 43.64 26.01 M1 75.07 C17.98 55.53, 34.96 36, 43.64 26.01 M1.85 77.13 C16.03 60.82, 30.22 44.5, 45.81 26.57 M1.85 77.13 C17.82 58.76, 33.79 40.39, 45.81 26.57 M1.39 80.71 C12.67 67.74, 23.95 54.76, 48.63 26.37 M1.39 80.71 C20.06 59.24, 38.72 37.77, 48.63 26.37 M1.59 83.53 C12.14 71.39, 22.69 59.26, 51.45 26.17 M1.59 83.53 C20.62 61.64, 39.66 39.74, 51.45 26.17 M1.79 86.35 C12.74 73.75, 23.69 61.15, 53.61 26.73 M1.79 86.35 C21.92 63.19, 42.06 40.03, 53.61 26.73 M1.98 89.17 C20.67 67.67, 39.37 46.17, 56.44 26.53 M1.98 89.17 C14.68 74.57, 27.37 59.96, 56.44 26.53 M1.52 92.75 C17.28 74.63, 33.03 56.51, 59.26 26.34 M1.52 92.75 C16.58 75.43, 31.64 58.11, 59.26 26.34 M1.72 95.57 C16.85 78.17, 31.98 60.76, 62.08 26.14 M1.72 95.57 C20.97 73.43, 40.22 51.28, 62.08 26.14 M1.92 98.39 C23.18 73.94, 44.44 49.48, 64.9 25.94 M1.92 98.39 C22.84 74.32, 43.77 50.25, 64.9 25.94 M1.46 101.97 C16.66 84.49, 31.85 67.01, 67.72 25.74 M1.46 101.97 C19.88 80.78, 38.29 59.6, 67.72 25.74 M1.66 104.79 C21.1 82.43, 40.53 60.07, 70.54 25.55 M1.66 104.79 C26.49 76.23, 51.31 47.67, 70.54 25.55 M1.85 107.61 C26.19 79.61, 50.53 51.61, 74.02 24.59 M1.85 107.61 C29.75 75.52, 57.64 43.43, 74.02 24.59 M1.4 111.19 C27.5 81.16, 53.61 51.12, 76.84 24.4 M1.4 111.19 C27.08 81.64, 52.76 52.1, 76.84 24.4 M1.59 114.01 C33.98 76.75, 66.38 39.49, 83.6 19.67 M1.59 114.01 C31 80.18, 60.41 46.35, 83.6 19.67 M1.79 116.83 C31.09 83.12, 60.39 49.42, 90.36 14.95 M1.79 116.83 C28.79 85.77, 55.8 54.71, 90.36 14.95 M103.48 -0.15 C103.48 -0.15, 103.48 -0.15, 103.48 -0.15 M103.48 -0.15 C103.48 -0.15, 103.48 -0.15, 103.48 -0.15 M1.33 120.41 C22.29 96.3, 43.24 72.2, 105.64 0.41 M1.33 120.41 C35.12 81.54, 68.91 42.67, 105.64 0.41 M1.53 123.23 C28.05 92.72, 54.57 62.21, 105.84 3.23 M1.53 123.23 C36.58 82.9, 71.64 42.58, 105.84 3.23 M1.73 126.05 C31.23 92.11, 60.74 58.16, 106.04 6.05 M1.73 126.05 C33.56 89.44, 65.39 52.82, 106.04 6.05 M1.92 128.87 C34.19 91.76, 66.45 54.64, 106.24 8.87 M1.92 128.87 C39.13 86.07, 76.34 43.26, 106.24 8.87 M1.46 132.45 C29.4 100.31, 57.33 68.18, 106.43 11.7 M1.46 132.45 C42.79 84.91, 84.11 37.37, 106.43 11.7 M1.66 135.27 C24.88 108.56, 48.09 81.86, 106.63 14.52 M1.66 135.27 C30.14 102.51, 58.62 69.75, 106.63 14.52 M1.86 138.09 C23.1 113.66, 44.34 89.22, 106.83 17.34 M1.86 138.09 C40.92 93.16, 79.99 48.22, 106.83 17.34 M1.4 141.67 C24.79 114.76, 48.18 87.85, 106.37 20.92 M1.4 141.67 C41.41 95.64, 81.42 49.62, 106.37 20.92 M1.6 144.49 C33.7 107.56, 65.81 70.62, 106.57 23.74 M1.6 144.49 C28.96 113.02, 56.32 81.54, 106.57 23.74 M1.8 147.31 C34.32 109.9, 66.84 72.48, 106.76 26.56 M1.8 147.31 C25.43 120.12, 49.07 92.92, 106.76 26.56 M1.34 150.89 C38.66 107.95, 75.98 65.02, 106.96 29.38 M1.34 150.89 C34.8 112.39, 68.26 73.9, 106.96 29.38 M1.53 153.71 C26.74 124.71, 51.95 95.71, 106.5 32.96 M1.53 153.71 C41.4 107.85, 81.26 61.99, 106.5 32.96 M1.73 156.53 C31.56 122.22, 61.38 87.91, 106.7 35.78 M1.73 156.53 C26.48 128.06, 51.22 99.6, 106.7 35.78 M1.93 159.35 C37.02 118.98, 72.11 78.62, 106.9 38.6 M1.93 159.35 C29.09 128.11, 56.25 96.87, 106.9 38.6 M1.47 162.93 C43.45 114.64, 85.43 66.35, 106.44 42.18 M1.47 162.93 C38.22 120.66, 74.97 78.38, 106.44 42.18 M1.67 165.75 C30.57 132.51, 59.46 99.26, 106.64 45 M1.67 165.75 C34.57 127.9, 67.48 90.04, 106.64 45 M1.21 169.33 C39.76 124.98, 78.31 80.63, 106.83 47.82 M1.21 169.33 C25.49 141.39, 49.78 113.45, 106.83 47.82 M0.75 172.9 C33.35 135.4, 65.95 97.9, 106.37 51.39 M0.75 172.9 C25.34 144.61, 49.94 116.32, 106.37 51.39 M0.95 175.72 C22.72 150.68, 44.49 125.64, 106.57 54.22 M0.95 175.72 C30.83 141.35, 60.71 106.97, 106.57 54.22 M0.49 179.3 C26.24 149.67, 52 120.04, 106.77 57.04 M0.49 179.3 C36.96 137.34, 73.44 95.38, 106.77 57.04 M1.34 181.37 C34.15 143.63, 66.95 105.89, 106.31 60.61 M1.34 181.37 C38.51 138.6, 75.69 95.84, 106.31 60.61 M1.54 184.19 C27.46 154.37, 53.38 124.56, 106.51 63.44 M1.54 184.19 C23.42 159.02, 45.3 133.85, 106.51 63.44 M2.39 186.26 C27.01 157.94, 51.63 129.62, 106.71 66.26 M2.39 186.26 C36.42 147.11, 70.45 107.96, 106.71 66.26 M2.59 189.08 C29.23 158.44, 55.86 127.79, 106.9 69.08 M2.59 189.08 C26.57 161.49, 50.56 133.9, 106.9 69.08 M3.44 191.14 C33.39 156.69, 63.34 122.24, 106.44 72.65 M3.44 191.14 C36.33 153.31, 69.22 115.48, 106.44 72.65 M4.3 193.21 C41.46 150.45, 78.63 107.7, 106.64 75.48 M4.3 193.21 C29.52 164.19, 54.75 135.17, 106.64 75.48 M5.15 195.28 C41.11 153.91, 77.07 112.54, 106.84 78.3 M5.15 195.28 C34.74 161.24, 64.32 127.2, 106.84 78.3 M6 197.34 C28.93 170.97, 51.85 144.6, 106.38 81.87 M6 197.34 C39.58 158.72, 73.16 120.09, 106.38 81.87 M6.2 200.17 C32.68 169.7, 59.16 139.24, 106.58 84.7 M6.2 200.17 C29.92 172.88, 53.65 145.58, 106.58 84.7 M7.05 202.23 C34.13 171.09, 61.2 139.95, 106.77 87.52 M7.05 202.23 C27.79 178.38, 48.52 154.53, 106.77 87.52 M8.56 203.55 C30.37 178.46, 52.18 153.37, 106.32 91.09 M8.56 203.55 C46.5 159.91, 84.43 116.27, 106.32 91.09 M9.42 205.61 C36.17 174.84, 62.91 144.07, 106.51 93.92 M9.42 205.61 C30.58 181.26, 51.75 156.91, 106.51 93.92 M10.27 207.68 C48.43 163.78, 86.59 119.88, 106.71 96.74 M10.27 207.68 C31.12 183.69, 51.97 159.7, 106.71 96.74 M11.12 209.75 C48.09 167.22, 85.05 124.7, 106.91 99.56 M11.12 209.75 C45 170.78, 78.87 131.81, 106.91 99.56 M12.63 211.06 C41.97 177.31, 71.31 143.55, 107.76 101.62 M12.63 211.06 C34.36 186.06, 56.1 161.06, 107.76 101.62 M13.49 213.12 C42.64 179.59, 71.79 146.05, 107.3 105.2 M13.49 213.12 C36.12 187.09, 58.75 161.06, 107.3 105.2 M14.99 214.44 C38.17 187.78, 61.34 161.12, 107.5 108.02 M14.99 214.44 C49.21 175.08, 83.42 135.72, 107.5 108.02 M16.5 215.75 C45.73 182.13, 74.96 148.5, 107.7 110.84 M16.5 215.75 C47.93 179.6, 79.36 143.44, 107.7 110.84 M18.01 217.06 C42.44 188.97, 66.86 160.87, 107.24 114.42 M18.01 217.06 C37.92 194.16, 57.82 171.27, 107.24 114.42 M19.52 218.37 C41.34 193.27, 63.17 168.17, 107.44 117.24 M19.52 218.37 C51.63 181.44, 83.73 144.51, 107.44 117.24 M21.69 218.93 C55.4 180.15, 89.12 141.36, 107.63 120.06 M21.69 218.93 C39.58 198.34, 57.48 177.76, 107.63 120.06 M23.2 220.24 C47.5 192.29, 71.8 164.34, 107.17 123.64 M23.2 220.24 C43.5 196.88, 63.81 173.53, 107.17 123.64 M24.71 221.55 C56.37 185.13, 88.03 148.71, 107.37 126.46 M24.71 221.55 C56.36 185.14, 88.01 148.73, 107.37 126.46 M26.87 222.11 C43.17 203.36, 59.47 184.62, 107.57 129.28 M26.87 222.11 C55.18 189.55, 83.49 156.98, 107.57 129.28 M28.38 223.42 C58.7 188.55, 89.02 153.67, 107.11 132.86 M28.38 223.42 C47.45 201.49, 66.52 179.55, 107.11 132.86 M30.55 223.98 C54.08 196.92, 77.6 169.85, 107.31 135.68 M30.55 223.98 C54.04 196.95, 77.54 169.92, 107.31 135.68 M32.06 225.29 C54.52 199.45, 76.99 173.61, 106.85 139.26 M32.06 225.29 C55.9 197.86, 79.75 170.44, 106.85 139.26 M34.22 225.85 C55.05 201.89, 75.88 177.93, 107.05 142.08 M34.22 225.85 C60.37 195.77, 86.51 165.7, 107.05 142.08 M35.73 227.16 C63.84 194.83, 91.94 162.5, 107.24 144.9 M35.73 227.16 C63.11 195.67, 90.48 164.18, 107.24 144.9 M37.9 227.72 C64.49 197.13, 91.08 166.54, 106.78 148.48 M37.9 227.72 C65.35 196.14, 92.8 164.57, 106.78 148.48 M40.06 228.28 C59.27 206.18, 78.48 184.09, 106.33 152.05 M40.06 228.28 C56.08 209.85, 72.1 191.42, 106.33 152.05 M42.23 228.84 C55.88 213.13, 69.53 197.43, 105.87 155.63 M42.23 228.84 C64.55 203.16, 86.87 177.48, 105.87 155.63 M44.39 229.39 C67.59 202.71, 90.78 176.03, 105.41 159.21 M44.39 229.39 C65.19 205.47, 85.99 181.54, 105.41 159.21 M46.56 229.95 C66.75 206.72, 86.94 183.49, 105.6 162.03 M46.56 229.95 C68.99 204.15, 91.41 178.35, 105.6 162.03 M48.73 230.51 C60.89 216.52, 73.05 202.53, 105.15 165.6 M48.73 230.51 C69.19 206.97, 89.66 183.42, 105.15 165.6 M51.55 230.31 C67.57 211.88, 83.58 193.46, 104.69 169.18 M51.55 230.31 C66.8 212.77, 82.05 195.22, 104.69 169.18 M53.71 230.87 C69.39 212.83, 85.07 194.79, 104.23 172.76 M53.71 230.87 C65.2 217.65, 76.69 204.44, 104.23 172.76 M56.53 230.67 C75.39 208.98, 94.25 187.29, 105.08 174.82 M56.53 230.67 C71.64 213.29, 86.74 195.92, 105.08 174.82 M59.36 230.47 C74.37 213.21, 89.38 195.94, 103.31 179.91 M59.36 230.47 C72.22 215.68, 85.08 200.88, 103.31 179.91 M62.18 230.28 C72.27 218.66, 82.37 207.04, 100.88 185.75 M62.18 230.28 C74.9 215.64, 87.62 201.01, 100.88 185.75 M65.65 229.32 C77.98 215.14, 90.31 200.96, 101.08 188.57 M65.65 229.32 C78.17 214.92, 90.69 200.52, 101.08 188.57 M69.79 227.62 C80.25 215.58, 90.72 203.54, 100.62 192.15 M69.79 227.62 C77.6 218.63, 85.41 209.65, 100.62 192.15 M73.92 225.91 C82.63 215.9, 91.33 205.88, 100.16 195.72 M73.92 225.91 C80.28 218.6, 86.64 211.28, 100.16 195.72 M76.09 226.47 C80.97 220.85, 85.86 215.22, 99.71 199.3 M76.09 226.47 C81.67 220.04, 87.26 213.61, 99.71 199.3 M81.53 223.25 C85.92 218.21, 90.3 213.17, 98.59 203.63 M81.53 223.25 C85.45 218.75, 89.37 214.24, 98.59 203.63 M85.67 221.55 C88.41 218.39, 91.15 215.24, 98.79 206.45 M85.67 221.55 C89.17 217.51, 92.68 213.48, 98.79 206.45 M16.4 215.87 C16.4 215.87, 16.4 215.87, 16.4 215.87 M16.4 215.87 C16.4 215.87, 16.4 215.87, 16.4 215.87 M25.26 220.92 C21.62 217.76, 17.98 214.6, 10.92 208.46 M25.26 220.92 C19.92 216.29, 14.59 211.65, 10.92 208.46 M31.1 223.35 C26.54 219.39, 21.98 215.43, 8.45 203.67 M31.1 223.35 C22.78 216.12, 14.47 208.9, 8.45 203.67 M36.18 225.12 C29.96 219.72, 23.74 214.31, 6.75 199.54 M36.18 225.12 C29.88 219.65, 23.58 214.17, 6.75 199.54 M40.51 226.24 C27.96 215.33, 15.41 204.42, 5.8 196.06 M40.51 226.24 C32 218.84, 23.49 211.44, 5.8 196.06 M46.35 228.66 C33.28 217.3, 20.2 205.93, 4.84 192.58 M46.35 228.66 C34.09 218.01, 21.84 207.35, 4.84 192.58 M49.93 229.12 C33.78 215.08, 17.63 201.05, 3.14 188.45 M49.93 229.12 C36.97 217.86, 24.02 206.6, 3.14 188.45 M53.51 229.58 C35.01 213.51, 16.52 197.43, 2.19 184.97 M53.51 229.58 C35.31 213.77, 17.12 197.95, 2.19 184.97 M57.08 230.04 C38.7 214.06, 20.33 198.09, 1.23 181.49 M57.08 230.04 C39.21 214.5, 21.33 198.96, 1.23 181.49 M59.15 229.19 C41.41 213.77, 23.68 198.35, 1.04 178.67 M59.15 229.19 C37.77 210.6, 16.38 192.01, 1.04 178.67 M61.97 228.99 C46.72 215.74, 31.48 202.48, 1.59 176.5 M61.97 228.99 C45.68 214.83, 29.39 200.67, 1.59 176.5 M64.79 228.79 C47.67 213.91, 30.54 199.02, 1.4 173.68 M64.79 228.79 C42.63 209.53, 20.47 190.26, 1.4 173.68 M66.86 227.94 C52.76 215.68, 38.66 203.43, 1.95 171.52 M66.86 227.94 C50.07 213.35, 33.29 198.75, 1.95 171.52 M68.93 227.09 C46.21 207.34, 23.5 187.59, 1.76 168.7 M68.93 227.09 C45.37 206.61, 21.82 186.13, 1.76 168.7 M70.99 226.23 C50.81 208.69, 30.64 191.15, 0.8 165.22 M70.99 226.23 C52.97 210.57, 34.95 194.9, 0.8 165.22 M73.06 225.38 C47.62 203.26, 22.18 181.15, 1.36 163.05 M73.06 225.38 C54.4 209.16, 35.75 192.95, 1.36 163.05 M75.88 225.18 C54.21 206.34, 32.54 187.51, 1.16 160.23 M75.88 225.18 C55.58 207.53, 35.28 189.88, 1.16 160.23 M77.95 224.33 C52.69 202.37, 27.44 180.42, 0.97 157.41 M77.95 224.33 C62.21 210.65, 46.47 196.97, 0.97 157.41 M79.26 222.82 C62.62 208.35, 45.97 193.88, 1.52 155.24 M79.26 222.82 C52.15 199.25, 25.04 175.69, 1.52 155.24 M81.33 221.97 C63.05 206.08, 44.78 190.19, 1.33 152.42 M81.33 221.97 C53.54 197.81, 25.76 173.66, 1.33 152.42 M83.39 221.11 C65.99 205.99, 48.6 190.86, 1.13 149.6 M83.39 221.11 C52.93 194.63, 22.47 168.15, 1.13 149.6 M84.71 219.6 C52.12 191.28, 19.54 162.96, 0.93 146.78 M84.71 219.6 C60.4 198.47, 36.09 177.34, 0.93 146.78 M86.77 218.75 C52.96 189.36, 19.15 159.97, 1.49 144.61 M86.77 218.75 C64.88 199.72, 43 180.7, 1.49 144.61 M88.08 217.24 C61.61 194.22, 35.13 171.21, 1.29 141.79 M88.08 217.24 C64.49 196.73, 40.89 176.22, 1.29 141.79 M90.15 216.39 C68.27 197.36, 46.38 178.34, 1.1 138.97 M90.15 216.39 C57.62 188.1, 25.08 159.82, 1.1 138.97 M91.46 214.88 C70.2 196.39, 48.93 177.91, 0.9 136.15 M91.46 214.88 C58.06 185.84, 24.66 156.81, 0.9 136.15 M92.78 213.37 C56.37 181.72, 19.97 150.08, 1.46 133.98 M92.78 213.37 C66.16 190.23, 39.54 167.09, 1.46 133.98 M94.09 211.86 C57.08 179.68, 20.06 147.51, 1.26 131.16 M94.09 211.86 C66.72 188.07, 39.35 164.28, 1.26 131.16 M95.4 210.35 C71.17 189.29, 46.95 168.23, 1.06 128.34 M95.4 210.35 C70.15 188.4, 44.89 166.44, 1.06 128.34 M96.71 208.84 C60.31 177.2, 23.91 145.56, 0.86 125.52 M96.71 208.84 C77.42 192.07, 58.13 175.3, 0.86 125.52 M97.27 206.67 C60.41 174.63, 23.54 142.58, 1.42 123.35 M97.27 206.67 C62.37 176.34, 27.47 146, 1.42 123.35 M97.83 204.51 C66.58 177.34, 35.33 150.18, 1.22 120.53 M97.83 204.51 C71.06 181.24, 44.29 157.97, 1.22 120.53 M98.38 202.34 C68.32 176.21, 38.27 150.08, 1.03 117.71 M98.38 202.34 C70.31 177.94, 42.23 153.53, 1.03 117.71 M98.94 200.18 C66.05 171.58, 33.15 142.99, 1.58 115.55 M98.94 200.18 C65.01 170.68, 31.07 141.18, 1.58 115.55 M99.5 198.01 C68.25 170.85, 37 143.68, 1.39 112.72 M99.5 198.01 C61.67 165.13, 23.85 132.25, 1.39 112.72 M100.06 195.85 C71.04 170.63, 42.03 145.41, 1.19 109.9 M100.06 195.85 C72.41 171.82, 44.77 147.79, 1.19 109.9 M100.61 193.68 C74.15 170.68, 47.69 147.67, 0.99 107.08 M100.61 193.68 C76.88 173.05, 53.14 152.41, 0.99 107.08 M101.17 191.52 C78.94 172.19, 56.7 152.86, 1.55 104.92 M101.17 191.52 C64.16 159.34, 27.14 127.16, 1.55 104.92 M100.97 188.69 C64.67 157.14, 28.37 125.58, 1.35 102.09 M100.97 188.69 C74.41 165.6, 47.84 142.51, 1.35 102.09 M100.78 185.87 C68.63 157.93, 36.49 129.99, 1.15 99.27 M100.78 185.87 C64.59 154.41, 28.39 122.95, 1.15 99.27 M101.33 183.71 C62.03 149.54, 22.73 115.38, 0.96 96.45 M101.33 183.71 C68.38 155.06, 35.42 126.41, 0.96 96.45 M101.89 181.54 C66.78 151.02, 31.67 120.5, 1.51 94.29 M101.89 181.54 C78.69 161.37, 55.48 141.2, 1.51 94.29 M102.45 179.38 C73.49 154.21, 44.54 129.04, 1.32 91.46 M102.45 179.38 C70.24 151.38, 38.04 123.39, 1.32 91.46 M103.01 177.21 C80.07 157.27, 57.13 137.33, 1.12 88.64 M103.01 177.21 C63.36 142.75, 23.72 108.29, 1.12 88.64 M104.32 175.7 C68.08 144.2, 31.84 112.7, 0.92 85.82 M104.32 175.7 C66.11 142.49, 27.9 109.27, 0.92 85.82 M104.12 172.88 C80.34 152.2, 56.55 131.53, 1.48 83.66 M104.12 172.88 C74.52 147.15, 44.91 121.41, 1.48 83.66 M104.68 170.71 C79 148.39, 53.33 126.07, 1.28 80.83 M104.68 170.71 C78.65 148.08, 52.61 125.45, 1.28 80.83 M104.48 167.89 C82.25 148.57, 60.02 129.24, 1.09 78.01 M104.48 167.89 C81.94 148.3, 59.4 128.71, 1.09 78.01 M105.04 165.73 C83.68 147.16, 62.32 128.59, 1.64 75.85 M105.04 165.73 C66.49 132.22, 27.95 98.72, 1.64 75.85 M104.84 162.91 C65.53 128.73, 26.21 94.55, 2.2 73.68 M104.84 162.91 C73.62 135.76, 42.4 108.62, 2.2 73.68 M105.4 160.74 C83.22 141.46, 61.04 122.18, 2 70.86 M105.4 160.74 C66.35 126.8, 27.3 92.85, 2 70.86 M105.2 157.92 C73.53 130.39, 41.86 102.86, 1.81 68.04 M105.2 157.92 C73.06 129.98, 40.91 102.03, 1.81 68.04 M105.76 155.75 C82.44 135.48, 59.13 115.22, 1.61 65.22 M105.76 155.75 C69.41 124.16, 33.06 92.56, 1.61 65.22 M105.56 152.93 C72.46 124.16, 39.36 95.38, 1.41 62.4 M105.56 152.93 C80.62 131.25, 55.69 109.58, 1.41 62.4 M106.12 150.77 C69.78 119.18, 33.44 87.59, 1.97 60.23 M106.12 150.77 C84.56 132.03, 63.01 113.29, 1.97 60.23 M106.68 148.6 C73.83 120.05, 40.99 91.5, 1.77 57.41 M106.68 148.6 C72.19 118.62, 37.71 88.65, 1.77 57.41 M106.48 145.78 C78.53 121.48, 50.58 97.19, 1.57 54.59 M106.48 145.78 C74.05 117.59, 41.62 89.4, 1.57 54.59 M106.28 142.96 C69.55 111.03, 32.82 79.1, 1.38 51.77 M106.28 142.96 C79.52 119.7, 52.76 96.43, 1.38 51.77 M106.84 140.79 C84.06 120.99, 61.28 101.18, 1.18 48.94 M106.84 140.79 C80.35 117.77, 53.87 94.74, 1.18 48.94 M106.64 137.97 C80.48 115.22, 54.31 92.48, 1.74 46.78 M106.64 137.97 C71.77 107.66, 36.9 77.34, 1.74 46.78 M106.44 135.15 C64.66 98.83, 22.88 62.51, 1.54 43.96 M106.44 135.15 C78.73 111.06, 51.02 86.97, 1.54 43.96 M106.25 132.33 C64.91 96.4, 23.58 60.47, 1.34 41.14 M106.25 132.33 C73.51 103.87, 40.77 75.41, 1.34 41.14 M106.8 130.16 C66.8 95.38, 26.79 60.6, 1.14 38.31 M106.8 130.16 C83.59 109.98, 60.37 89.8, 1.14 38.31 M106.61 127.34 C71.8 97.09, 37 66.83, 0.95 35.49 M106.61 127.34 C66.15 92.17, 25.69 57, 0.95 35.49 M106.41 124.52 C76.67 98.66, 46.92 72.81, 1.51 33.33 M106.41 124.52 C82.81 104, 59.21 83.49, 1.51 33.33 M106.97 122.35 C68.55 88.96, 30.14 55.57, 1.31 30.5 M106.97 122.35 C67.73 88.24, 28.49 54.14, 1.31 30.5 M106.77 119.53 C85.41 100.97, 64.06 82.4, 1.11 27.68 M106.77 119.53 C82.99 98.86, 59.22 78.2, 1.11 27.68 M106.57 116.71 C67.79 83, 29.02 49.29, 0.91 24.86 M106.57 116.71 C70.52 85.37, 34.47 54.03, 0.91 24.86 M107.13 114.54 C66.03 78.82, 24.93 43.09, 0.72 22.04 M107.13 114.54 C85.58 95.81, 64.03 77.08, 0.72 22.04 M106.93 111.72 C67.54 77.48, 28.15 43.24, 1.27 19.87 M106.93 111.72 C65.32 75.55, 23.7 39.37, 1.27 19.87 M106.74 108.9 C80.32 85.94, 53.9 62.97, 1.08 17.05 M106.74 108.9 C66.85 74.23, 26.96 39.55, 1.08 17.05 M106.54 106.08 C66.77 71.51, 27 36.94, 0.88 14.23 M106.54 106.08 C78.2 81.45, 49.87 56.82, 0.88 14.23 M107.1 103.91 C67.68 69.65, 28.26 35.39, 0.68 11.41 M107.1 103.91 C84.99 84.7, 62.89 65.48, 0.68 11.41 M106.14 100.44 C70.92 69.81, 35.69 39.19, 1.24 9.24 M106.14 100.44 C70.42 69.39, 34.7 38.33, 1.24 9.24 M105.95 97.62 C75.89 71.49, 45.83 45.36, 1.04 6.42 M105.95 97.62 C65.22 62.22, 24.5 26.82, 1.04 6.42 M106.5 95.45 C67.24 61.32, 27.98 27.19, 0.84 3.6 M106.5 95.45 C82.76 74.81, 59.01 54.16, 0.84 3.6 M106.31 92.63 C74.59 65.06, 42.88 37.49, 0.65 0.78 M106.31 92.63 C79.73 69.52, 53.15 46.42, 0.65 0.78 M106.11 89.81 C74.56 62.38, 43.02 34.96, 20.07 15.02 M106.11 89.81 C74.08 61.97, 42.05 34.12, 20.07 15.02 M105.91 86.99 C84.9 68.72, 63.9 50.46, 29.69 20.72 M105.91 86.99 C77.87 62.61, 49.82 38.23, 29.69 20.72 M106.47 84.82 C80.18 61.97, 53.9 39.12, 34.77 22.49 M106.47 84.82 C86.97 67.87, 67.48 50.93, 34.77 22.49 M106.27 82 C90.54 68.33, 74.81 54.65, 40.61 24.92 M106.27 82 C83.62 62.31, 60.98 42.62, 40.61 24.92 M106.07 79.18 C82.31 58.52, 58.54 37.86, 43.43 24.72 M106.07 79.18 C90.41 65.56, 74.75 51.95, 43.43 24.72 M105.88 76.36 C83.43 56.84, 60.98 37.33, 47.01 25.18 M105.88 76.36 C92.47 64.7, 79.07 53.05, 47.01 25.18 M106.43 74.19 C85.18 55.71, 63.92 37.23, 49.83 24.99 M106.43 74.19 C91.12 60.88, 75.81 47.57, 49.83 24.99 M106.24 71.37 C92.89 59.77, 79.54 48.16, 53.41 25.44 M106.24 71.37 C90.45 57.65, 74.67 43.93, 53.41 25.44 M106.04 68.55 C91.69 56.07, 77.34 43.6, 56.23 25.25 M106.04 68.55 C89.36 54.05, 72.69 39.55, 56.23 25.25 M106.6 66.38 C89.11 51.18, 71.62 35.98, 59.05 25.05 M106.6 66.38 C93.36 54.88, 80.13 43.37, 59.05 25.05 M106.4 63.56 C96.94 55.33, 87.47 47.11, 61.87 24.85 M106.4 63.56 C93.86 52.66, 81.32 41.76, 61.87 24.85 M106.2 60.74 C97.76 53.4, 89.31 46.05, 64.69 24.65 M106.2 60.74 C92.75 49.04, 79.3 37.35, 64.69 24.65 M106.01 57.92 C98.04 51, 90.08 44.07, 67.52 24.46 M106.01 57.92 C91.09 44.95, 76.18 31.99, 67.52 24.46 M106.56 55.75 C92.11 43.19, 77.65 30.62, 70.34 24.26 M106.56 55.75 C98.2 48.48, 89.83 41.2, 70.34 24.26 M106.37 52.93 C96.46 44.32, 86.56 35.71, 72.4 23.41 M106.37 52.93 C93.93 42.12, 81.5 31.31, 72.4 23.41 M106.17 50.11 C95.15 40.53, 84.13 30.95, 75.23 23.21 M106.17 50.11 C99 43.88, 91.83 37.64, 75.23 23.21 M105.97 47.29 C98.62 40.9, 91.27 34.51, 76.54 21.7 M105.97 47.29 C95.11 37.85, 84.25 28.41, 76.54 21.7 M106.53 45.12 C99.85 39.32, 93.17 33.51, 78.6 20.85 M106.53 45.12 C95.46 35.5, 84.39 25.88, 78.6 20.85 M106.33 42.3 C100.51 37.24, 94.7 32.19, 80.67 19.99 M106.33 42.3 C96.45 33.71, 86.58 25.13, 80.67 19.99 M106.13 39.48 C97.08 31.61, 88.04 23.75, 81.98 18.48 M106.13 39.48 C100.52 34.59, 94.9 29.71, 81.98 18.48 M105.94 36.66 C98.7 30.37, 91.46 24.08, 84.05 17.63 M105.94 36.66 C100.68 32.09, 95.42 27.51, 84.05 17.63 M106.49 34.49 C101.17 29.86, 95.84 25.23, 85.36 16.12 M106.49 34.49 C100.46 29.24, 94.42 24, 85.36 16.12 M106.3 31.67 C101.92 27.86, 97.54 24.06, 87.43 15.27 M106.3 31.67 C98.77 25.13, 91.24 18.58, 87.43 15.27 M106.1 28.85 C100.49 23.97, 94.88 19.09, 88.74 13.76 M106.1 28.85 C100.24 23.75, 94.37 18.65, 88.74 13.76 M105.9 26.03 C100.41 21.25, 94.92 16.48, 90.81 12.91 M105.9 26.03 C100.43 21.27, 94.97 16.52, 90.81 12.91 M106.46 23.86 C103.56 21.34, 100.66 18.82, 92.12 11.4 M106.46 23.86 C103.46 21.25, 100.45 18.64, 92.12 11.4 M106.26 21.04 C102.38 17.66, 98.5 14.29, 94.19 10.54 M106.26 21.04 C103.01 18.21, 99.76 15.39, 94.19 10.54 M106.06 18.22 C103.26 15.78, 100.45 13.34, 95.5 9.03 M106.06 18.22 C102.28 14.93, 98.5 11.64, 95.5 9.03 M106.62 16.05 C104.04 13.81, 101.46 11.56, 96.81 7.52 M106.62 16.05 C103.72 13.53, 100.82 11, 96.81 7.52 M106.42 13.23 C104.32 11.4, 102.22 9.58, 98.12 6.01 M106.42 13.23 C104.11 11.22, 101.79 9.2, 98.12 6.01 M106.23 10.41 C104.13 8.58, 102.02 6.76, 99.44 4.5 M106.23 10.41 C104.49 8.89, 102.74 7.38, 99.44 4.5 M106.03 7.59 C104.62 6.37, 103.22 5.14, 100.75 3 M106.03 7.59 C104.42 6.19, 102.81 4.79, 100.75 3 M105.83 4.77 C104.54 3.64, 103.24 2.52, 102.06 1.49 M105.83 4.77 C105.07 4.1, 104.31 3.44, 102.06 1.49 M105.64 1.94 C104.8 1.22, 103.96 0.49, 103.37 -0.02 M105.64 1.94 C105.17 1.54, 104.71 1.14, 103.37 -0.02" stroke="#4c6ef5" stroke-width="0.25" fill="none"/><path d="M0 0 C3.33 2.5, 13.33 10.83, 20 15 C26.67 19.17, 31.67 23.33, 40 25 C48.33 26.67, 63.33 25.83, 70 25 C76.67 24.17, 75.83 22.5, 80 20 C84.17 17.5, 90.83 13.33, 95 10 C99.17 6.67, 103.15 -3.44, 105 0 C106.85 3.44, 105.93 23.85, 106.11 30.63 C106.3 37.4, 106.11 28.96, 106.11 40.63 C106.11 52.29, 106.3 79.9, 106.11 100.63 C105.93 121.35, 106.02 150.94, 105 165 C103.98 179.06, 100.83 180, 100 185 C99.17 190, 101.48 189.9, 100 195 C98.52 200.1, 98.43 209.69, 91.11 215.63 C83.8 221.56, 68.61 230.63, 56.11 230.63 C43.61 230.63, 25.28 223.13, 16.11 215.63 C6.94 208.13, 3.61 193.96, 1.11 185.63 C-1.39 177.29, 1.11 174.79, 1.11 165.63 C1.11 156.46, 1.11 142.29, 1.11 130.63 C1.11 118.96, 1.11 108.13, 1.11 95.63 C1.11 83.13, 1.3 71.56, 1.11 55.63 C0.93 39.69, 0.19 9.27, 0 0 M0 0 C3.33 2.5, 13.33 10.83, 20 15 C26.67 19.17, 31.67 23.33, 40 25 C48.33 26.67, 63.33 25.83, 70 25 C76.67 24.17, 75.83 22.5, 80 20 C84.17 17.5, 90.83 13.33, 95 10 C99.17 6.67, 103.15 -3.44, 105 0 C106.85 3.44, 105.93 23.85, 106.11 30.63 C106.3 37.4, 106.11 28.96, 106.11 40.63 C106.11 52.29, 106.3 79.9, 106.11 100.63 C105.93 121.35, 106.02 150.94, 105 165 C103.98 179.06, 100.83 180, 100 185 C99.17 190, 101.48 189.9, 100 195 C98.52 200.1, 98.43 209.69, 91.11 215.63 C83.8 221.56, 68.61 230.63, 56.11 230.63 C43.61 230.63, 25.28 223.13, 16.11 215.63 C6.94 208.13, 3.61 193.96, 1.11 185.63 C-1.39 177.29, 1.11 174.79, 1.11 165.63 C1.11 156.46, 1.11 142.29, 1.11 130.63 C1.11 118.96, 1.11 108.13, 1.11 95.63 C1.11 83.13, 1.3 71.56, 1.11 55.63 C0.93 39.69, 0.19 9.27, 0 0" stroke="#000000" stroke-width="0.5" fill="none"/></g></g><mask/><g stroke-linecap="round"><g transform="translate(175.00000000000006 245) rotate(0 52.5 30)"><path d="M0 0 C1.67 5.83, 5 25.83, 10 35 C15 44.17, 23.33 50.83, 30 55 C36.67 59.17, 45 59.17, 50 60 C55 60.83, 55 60.83, 60 60 C65 59.17, 74.17 58.33, 80 55 C85.83 51.67, 91.67 45, 95 40 C98.33 35, 98.33 31.67, 100 25 C101.67 18.33, 104.17 4.17, 105 0 M0 0 C1.67 5.83, 5 25.83, 10 35 C15 44.17, 23.33 50.83, 30 55 C36.67 59.17, 45 59.17, 50 60 C55 60.83, 55 60.83, 60 60 C65 59.17, 74.17 58.33, 80 55 C85.83 51.67, 91.67 45, 95 40 C98.33 35, 98.33 31.67, 100 25 C101.67 18.33, 104.17 4.17, 105 0" stroke="#000000" stroke-width="4" fill="none"/></g></g><mask/><g stroke-linecap="round"><g transform="translate(60.00000000000003 90) rotate(0 0 32.5)"><path d="M0 0 C0 10.83, 0 54.17, 0 65 M0 0 C0 10.83, 0 54.17, 0 65" stroke="#5c940d" stroke-width="2" fill="none"/></g><g transform="translate(60.00000000000003 90) rotate(0 0 32.5)"><path d="M-10.26 36.81 C-8.05 42.88, -5.84 48.95, 0 65 M-10.26 36.81 C-7.71 43.81, -5.16 50.82, 0 65" stroke="#5c940d" stroke-width="2" fill="none"/></g><g transform="translate(60.00000000000003 90) rotate(0 0 32.5)"><path d="M10.26 36.81 C8.05 42.88, 5.84 48.95, 0 65 M10.26 36.81 C7.71 43.81, 5.16 50.82, 0 65" stroke="#5c940d" stroke-width="2" fill="none"/></g></g><mask/><g stroke-linecap="round"><g transform="translate(25.00000000000003 100) rotate(0 7.5 27.5)"><path d="M0 0 C2.5 9.17, 12.5 45.83, 15 55 M0 0 C2.5 9.17, 12.5 45.83, 15 55" stroke="#5c940d" stroke-width="2" fill="none"/></g><g transform="translate(25.00000000000003 100) rotate(0 7.5 27.5)"><path d="M-1.45 31.72 C4.16 39.66, 9.77 47.59, 15 55 M-1.45 31.72 C3.91 39.31, 9.27 46.89, 15 55" stroke="#5c940d" stroke-width="2" fill="none"/></g><g transform="translate(25.00000000000003 100) rotate(0 7.5 27.5)"><path d="M17.36 26.59 C16.55 36.28, 15.75 45.96, 15 55 M17.36 26.59 C16.59 35.85, 15.82 45.1, 15 55" stroke="#5c940d" stroke-width="2" fill="none"/></g></g><mask/><g stroke-linecap="round"><g transform="translate(95.00000000000003 95) rotate(0 -7.5 30)"><path d="M0 0 C-2.5 10, -12.5 50, -15 60 M0 0 C-2.5 10, -12.5 50, -15 60" stroke="#5c940d" stroke-width="2" fill="none"/></g><g transform="translate(95.00000000000003 95) rotate(0 -7.5 30)"><path d="M-18.12 30.16 C-17.35 37.48, -16.59 44.81, -15 60 M-18.12 30.16 C-17.13 39.66, -16.13 49.15, -15 60" stroke="#5c940d" stroke-width="2" fill="none"/></g><g transform="translate(95.00000000000003 95) rotate(0 -7.5 30)"><path d="M1.79 35.14 C-2.33 41.24, -6.45 47.34, -15 60 M1.79 35.14 C-3.55 43.05, -8.89 50.96, -15 60" stroke="#5c940d" stroke-width="2" fill="none"/></g></g><mask/><g stroke-linecap="round"><g transform="translate(20.00000000000003 105) rotate(0 -5 -12.5)"><path d="M0 0 C-1.67 -4.17, -8.33 -20.83, -10 -25 M0 0 C-1.67 -4.17, -8.33 -20.83, -10 -25" stroke="#d9480f" stroke-width="2" fill="none"/></g><g transform="translate(20.00000000000003 105) rotate(0 -5 -12.5)"><path d="M-1.03 -14.96 C-4.31 -18.64, -7.59 -22.31, -10 -25 M-1.03 -14.96 C-2.84 -17, -4.66 -19.03, -10 -25" stroke="#d9480f" stroke-width="2" fill="none"/></g><g transform="translate(20.00000000000003 105) rotate(0 -5 -12.5)"><path d="M-9.58 -11.54 C-9.73 -16.47, -9.89 -21.39, -10 -25 M-9.58 -11.54 C-9.66 -14.27, -9.75 -17, -10 -25" stroke="#d9480f" stroke-width="2" fill="none"/></g></g><mask/><g stroke-linecap="round"><g transform="translate(105.00000000000003 105) rotate(0 5 -12.5)"><path d="M0 0 C1.67 -4.17, 8.33 -20.83, 10 -25 M0 0 C1.67 -4.17, 8.33 -20.83, 10 -25" stroke="#d9480f" stroke-width="2" fill="none"/></g><g transform="translate(105.00000000000003 105) rotate(0 5 -12.5)"><path d="M9.58 -11.54 C9.73 -16.47, 9.89 -21.39, 10 -25 M9.58 -11.54 C9.73 -16.52, 9.89 -21.49, 10 -25" stroke="#d9480f" stroke-width="2" fill="none"/></g><g transform="translate(105.00000000000003 105) rotate(0 5 -12.5)"><path d="M1.03 -14.96 C4.31 -18.64, 7.59 -22.31, 10 -25 M1.03 -14.96 C4.34 -18.67, 7.66 -22.38, 10 -25" stroke="#d9480f" stroke-width="2" fill="none"/></g></g><mask/><g stroke-linecap="round"><g transform="translate(205.00000000000003 140) rotate(0 -15 -30)"><path d="M0 0 C-5 -10, -25 -50, -30 -60 M0 0 C-5 -10, -25 -50, -30 -60" stroke="#d9480f" stroke-width="2" fill="none"/></g><g transform="translate(205.00000000000003 140) rotate(0 -15 -30)"><path d="M-8.22 -39.37 C-13.7 -44.56, -19.18 -49.75, -30 -60 M-8.22 -39.37 C-16.57 -47.28, -24.92 -55.19, -30 -60" stroke="#d9480f" stroke-width="2" fill="none"/></g><g transform="translate(205.00000000000003 140) rotate(0 -15 -30)"><path d="M-26.57 -30.2 C-27.43 -37.69, -28.3 -45.19, -30 -60 M-26.57 -30.2 C-27.89 -41.62, -29.2 -53.05, -30 -60" stroke="#d9480f" stroke-width="2" fill="none"/></g></g><mask/><g stroke-linecap="round"><g transform="translate(255.00000000000003 140) rotate(0 12.5 -30)"><path d="M0 0 C4.17 -10, 20.83 -50, 25 -60 M0 0 C4.17 -10, 20.83 -50, 25 -60" stroke="#d9480f" stroke-width="2" fill="none"/></g><g transform="translate(255.00000000000003 140) rotate(0 12.5 -30)"><path d="M23.63 -30.03 C23.93 -36.56, 24.23 -43.08, 25 -60 M23.63 -30.03 C23.95 -37, 24.27 -43.97, 25 -60" stroke="#d9480f" stroke-width="2" fill="none"/></g><g transform="translate(255.00000000000003 140) rotate(0 12.5 -30)"><path d="M4.69 -37.92 C9.11 -42.73, 13.53 -47.54, 25 -60 M4.69 -37.92 C9.41 -43.06, 14.14 -48.19, 25 -60" stroke="#d9480f" stroke-width="2" fill="none"/></g></g><mask/><g stroke-linecap="round"><g transform="translate(230.00000000000003 105) rotate(0 0 12.5)"><path d="M0 0 C0 4.17, 0 20.83, 0 25 M0 0 C0 4.17, 0 20.83, 0 25" stroke="#5c940d" stroke-width="2" fill="none"/></g><g transform="translate(230.00000000000003 105) rotate(0 0 12.5)"><path d="M-4.28 13.25 C-3.16 16.32, -2.05 19.38, 0 25 M-4.28 13.25 C-2.88 17.09, -1.48 20.93, 0 25" stroke="#5c940d" stroke-width="2" fill="none"/></g><g transform="translate(230.00000000000003 105) rotate(0 0 12.5)"><path d="M4.28 13.25 C3.16 16.32, 2.05 19.38, 0 25 M4.28 13.25 C2.88 17.09, 1.48 20.93, 0 25" stroke="#5c940d" stroke-width="2" fill="none"/></g></g><mask/><g stroke-linecap="round"><g transform="translate(200.00000000000003 105) rotate(0 7.5 10)"><path d="M0 0 C2.5 3.33, 12.5 16.67, 15 20 M0 0 C2.5 3.33, 12.5 16.67, 15 20" stroke="#5c940d" stroke-width="2" fill="none"/></g><g transform="translate(200.00000000000003 105) rotate(0 7.5 10)"><path d="M4.53 13.17 C8.11 15.5, 11.69 17.84, 15 20 M4.53 13.17 C7.63 15.19, 10.73 17.21, 15 20" stroke="#5c940d" stroke-width="2" fill="none"/></g><g transform="translate(200.00000000000003 105) rotate(0 7.5 10)"><path d="M11.37 8.04 C12.61 12.13, 13.85 16.22, 15 20 M11.37 8.04 C12.45 11.58, 13.52 15.12, 15 20" stroke="#5c940d" stroke-width="2" fill="none"/></g></g><mask/><g stroke-linecap="round"><g transform="translate(255.00000000000003 105) rotate(0 -5 10)"><path d="M0 0 C-1.67 3.33, -8.33 16.67, -10 20 M0 0 C-1.67 3.33, -8.33 16.67, -10 20" stroke="#5c940d" stroke-width="2" fill="none"/></g><g transform="translate(255.00000000000003 105) rotate(0 -5 10)"><path d="M-8.72 8.89 C-9.05 11.79, -9.39 14.68, -10 20 M-8.72 8.89 C-9.07 11.91, -9.42 14.92, -10 20" stroke="#5c940d" stroke-width="2" fill="none"/></g><g transform="translate(255.00000000000003 105) rotate(0 -5 10)"><path d="M-1.88 12.31 C-4 14.32, -6.11 16.32, -10 20 M-1.88 12.31 C-4.08 14.4, -6.29 16.48, -10 20" stroke="#5c940d" stroke-width="2" fill="none"/></g></g><mask/></svg>