<svg version="1.1" xmlns="http://www.w3.org/2000/svg" viewBox="0 0 680 640" width="680" height="640">
  <!-- svg-source:excalidraw -->
  
  <defs>
    <style class="style-fonts">
      @font-face {
        font-family: "Virgil";
        src: url("https://excalidraw.com/Virgil.woff2");
      }
      @font-face {
        font-family: "Cascadia";
        src: url("https://excalidraw.com/Cascadia.woff2");
      }
    </style>
  </defs>
  <rect x="0" y="0" width="680" height="640" fill="#ffffff"/><g stroke-linecap="round" transform="translate(30 10) rotate(0 310 310)"><path d="M620 310 C620 315.59, 619.85 321.2, 619.55 326.78 C619.24 332.37, 618.79 337.96, 618.18 343.52 C617.58 349.08, 616.82 354.63, 615.92 360.15 C615.01 365.67, 613.95 371.18, 612.75 376.64 C611.55 382.1, 610.2 387.54, 608.7 392.93 C607.2 398.32, 605.56 403.68, 603.77 408.98 C601.99 414.28, 600.05 419.55, 597.98 424.74 C595.91 429.94, 593.7 435.09, 591.35 440.17 C589 445.24, 586.51 450.26, 583.89 455.21 C581.27 460.15, 578.51 465.03, 575.63 469.82 C572.74 474.62, 569.72 479.34, 566.58 483.97 C563.44 488.6, 560.17 493.15, 556.79 497.6 C553.4 502.06, 549.89 506.43, 546.27 510.69 C542.65 514.95, 538.91 519.13, 535.06 523.19 C531.21 527.25, 527.25 531.21, 523.19 535.06 C519.13 538.91, 514.95 542.65, 510.69 546.27 C506.43 549.89, 502.06 553.4, 497.6 556.79 C493.15 560.17, 488.6 563.44, 483.97 566.58 C479.34 569.72, 474.62 572.74, 469.82 575.63 C465.03 578.51, 460.15 581.27, 455.21 583.89 C450.26 586.51, 445.24 589, 440.17 591.35 C435.09 593.7, 429.94 595.91, 424.74 597.98 C419.55 600.05, 414.28 601.99, 408.98 603.77 C403.68 605.56, 398.32 607.2, 392.93 608.7 C387.54 610.2, 382.1 611.55, 376.64 612.75 C371.18 613.95, 365.67 615.01, 360.15 615.92 C354.63 616.82, 349.08 617.58, 343.52 618.18 C337.96 618.79, 332.37 619.24, 326.78 619.55 C321.2 619.85, 315.59 620, 310 620 C304.41 620, 298.8 619.85, 293.22 619.55 C287.63 619.24, 282.04 618.79, 276.48 618.18 C270.92 617.58, 265.37 616.82, 259.85 615.92 C254.33 615.01, 248.82 613.95, 243.36 612.75 C237.9 611.55, 232.46 610.2, 227.07 608.7 C221.68 607.2, 216.32 605.56, 211.02 603.77 C205.72 601.99, 200.45 600.05, 195.26 597.98 C190.06 595.91, 184.91 593.7, 179.83 591.35 C174.76 589, 169.74 586.51, 164.79 583.89 C159.85 581.27, 154.97 578.51, 150.18 575.63 C145.38 572.74, 140.66 569.72, 136.03 566.58 C131.4 563.44, 126.85 560.17, 122.4 556.79 C117.94 553.4, 113.57 549.89, 109.31 546.27 C105.05 542.65, 100.87 538.91, 96.81 535.06 C92.75 531.21, 88.79 527.25, 84.94 523.19 C81.09 519.13, 77.35 514.95, 73.73 510.69 C70.11 506.43, 66.6 502.06, 63.21 497.6 C59.83 493.15, 56.56 488.6, 53.42 483.97 C50.28 479.34, 47.26 474.62, 44.37 469.82 C41.49 465.03, 38.73 460.15, 36.11 455.21 C33.49 450.26, 31 445.24, 28.65 440.17 C26.3 435.09, 24.09 429.94, 22.02 424.74 C19.95 419.55, 18.01 414.28, 16.23 408.98 C14.44 403.68, 12.8 398.32, 11.3 392.93 C9.8 387.54, 8.45 382.1, 7.25 376.64 C6.05 371.18, 4.99 365.67, 4.08 360.15 C3.18 354.63, 2.42 349.08, 1.82 343.52 C1.21 337.96, 0.76 332.37, 0.45 326.78 C0.15 321.2, 0 315.59, 0 310 C0 304.41, 0.15 298.8, 0.45 293.22 C0.76 287.63, 1.21 282.04, 1.82 276.48 C2.42 270.92, 3.18 265.37, 4.08 259.85 C4.99 254.33, 6.05 248.82, 7.25 243.36 C8.45 237.9, 9.8 232.46, 11.3 227.07 C12.8 221.68, 14.44 216.32, 16.23 211.02 C18.01 205.72, 19.95 200.45, 22.02 195.26 C24.09 190.06, 26.3 184.91, 28.65 179.83 C31 174.76, 33.49 169.74, 36.11 164.79 C38.73 159.85, 41.49 154.97, 44.37 150.18 C47.26 145.38, 50.28 140.66, 53.42 136.03 C56.56 131.4, 59.83 126.85, 63.21 122.4 C66.6 117.94, 70.11 113.57, 73.73 109.31 C77.35 105.05, 81.09 100.87, 84.94 96.81 C88.79 92.75, 92.75 88.79, 96.81 84.94 C100.87 81.09, 105.05 77.35, 109.31 73.73 C113.57 70.11, 117.94 66.6, 122.4 63.21 C126.85 59.83, 131.4 56.56, 136.03 53.42 C140.66 50.28, 145.38 47.26, 150.18 44.37 C154.97 41.49, 159.85 38.73, 164.79 36.11 C169.74 33.49, 174.76 31, 179.83 28.65 C184.91 26.3, 190.06 24.09, 195.26 22.02 C200.45 19.95, 205.72 18.01, 211.02 16.23 C216.32 14.44, 221.68 12.8, 227.07 11.3 C232.46 9.8, 237.9 8.45, 243.36 7.25 C248.82 6.05, 254.33 4.99, 259.85 4.08 C265.37 3.18, 270.92 2.42, 276.48 1.82 C282.04 1.21, 287.63 0.76, 293.22 0.45 C298.8 0.15, 304.41 0, 310 0 C315.59 0, 321.2 0.15, 326.78 0.45 C332.37 0.76, 337.96 1.21, 343.52 1.82 C349.08 2.42, 354.63 3.18, 360.15 4.08 C365.67 4.99, 371.18 6.05, 376.64 7.25 C382.1 8.45, 387.54 9.8, 392.93 11.3 C398.32 12.8, 403.68 14.44, 408.98 16.23 C414.28 18.01, 419.55 19.95, 424.74 22.02 C429.94 24.09, 435.09 26.3, 440.17 28.65 C445.24 31, 450.26 33.49, 455.21 36.11 C460.15 38.73, 465.03 41.49, 469.82 44.37 C474.62 47.26, 479.34 50.28, 483.97 53.42 C488.6 56.56, 493.15 59.83, 497.6 63.21 C502.06 66.6, 506.43 70.11, 510.69 73.73 C514.95 77.35, 519.13 81.09, 523.19 84.94 C527.25 88.79, 531.21 92.75, 535.06 96.81 C538.91 100.87, 542.65 105.05, 546.27 109.31 C549.89 113.57, 553.4 117.94, 556.79 122.4 C560.17 126.85, 563.44 131.4, 566.58 136.03 C569.72 140.66, 572.74 145.38, 575.63 150.18 C578.51 154.97, 581.27 159.85, 583.89 164.79 C586.51 169.74, 589 174.76, 591.35 179.83 C593.7 184.91, 595.91 190.06, 597.98 195.26 C600.05 200.45, 601.99 205.72, 603.77 211.02 C605.56 216.32, 607.2 221.68, 608.7 227.07 C610.2 232.46, 611.55 237.9, 612.75 243.36 C613.95 248.82, 615.01 254.33, 615.92 259.85 C616.82 265.37, 617.58 270.92, 618.18 276.48 C618.79 282.04, 619.24 287.63, 619.55 293.22 C619.85 298.8, 620 304.41, 620 310" stroke="#000000" stroke-width="4" fill="none"/></g><g stroke-linecap="round"><g transform="translate(330 310) rotate(0 110 -110)"><path d="M0 0 C36.67 -36.67, 183.33 -183.33, 220 -220 M0 0 C36.67 -36.67, 183.33 -183.33, 220 -220" stroke="#000000" stroke-width="4" fill="none"/></g></g><mask/><g stroke-linecap="round"><g transform="translate(110 530) rotate(0 110 -110)"><path d="M0 0 C36.67 -36.67, 183.33 -183.33, 220 -220 M0 0 C36.67 -36.67, 183.33 -183.33, 220 -220" stroke="#000000" stroke-width="4" fill="none"/></g></g><mask/><g stroke-linecap="round"><g transform="translate(330 630) rotate(0 0 -160)"><path d="M0 0 C0 -53.33, 0 -266.67, 0 -320 M0 0 C0 -53.33, 0 -266.67, 0 -320" stroke="#000000" stroke-width="4" fill="none"/></g></g><mask/><g stroke-linecap="round"><g transform="translate(550 550) rotate(0 -110 -120)"><path d="M0 0 C-36.67 -40, -183.33 -200, -220 -240 M0 0 C-36.67 -40, -183.33 -200, -220 -240" stroke="#000000" stroke-width="4" fill="none"/></g></g><mask/><g stroke-linecap="round"><g transform="translate(650 310) rotate(0 -160 0)"><path d="M0 0 C-53.33 0, -266.67 0, -320 0 M0 0 C-53.33 0, -266.67 0, -320 0" stroke="#000000" stroke-width="4" fill="none"/></g></g><mask/><g stroke-linecap="round"><g transform="translate(330 10) rotate(0 0 150)"><path d="M0 0 C0 50, 0 250, 0 300 M0 0 C0 50, 0 250, 0 300" stroke="#000000" stroke-width="4" fill="none"/></g></g><mask/><g stroke-linecap="round"><g transform="translate(330 310) rotate(0 -110 -100)"><path d="M0 0 C-36.67 -33.33, -183.33 -166.67, -220 -200 M0 0 C-36.67 -33.33, -183.33 -166.67, -220 -200" stroke="#000000" stroke-width="4" fill="none"/></g></g><mask/><g stroke-linecap="round"><g transform="translate(330 310) rotate(0 -150 0)"><path d="M0 0 C-50 0, -250 0, -300 0 M0 0 C-50 0, -250 0, -300 0" stroke="#000000" stroke-width="4" fill="none"/></g></g><mask/><g stroke-linecap="round"><g transform="translate(650 510) rotate(0 10 -170)"><path d="M0 0 C3.33 -30, 20 -123.33, 20 -180 C20 -236.67, 3.33 -313.33, 0 -340 M0 0 C3.33 -30, 20 -123.33, 20 -180 C20 -236.67, 3.33 -313.33, 0 -340" stroke="#000000" stroke-width="4" fill="none"/></g><g transform="translate(650 510) rotate(0 10 -170)"><path d="M14.65 -313.82 C11.15 -320.08, 7.64 -326.35, 0 -340 M14.65 -313.82 C9.17 -323.62, 3.69 -333.41, 0 -340" stroke="#000000" stroke-width="4" fill="none"/></g><g transform="translate(650 510) rotate(0 10 -170)"><path d="M-5.6 -310.53 C-4.26 -317.58, -2.92 -324.63, 0 -340 M-5.6 -310.53 C-3.51 -321.56, -1.41 -332.58, 0 -340" stroke="#000000" stroke-width="4" fill="none"/></g></g><mask/><g stroke-linecap="round"><g transform="translate(10 490) rotate(180 10 -170)"><path d="M0 0 C3.33 -30, 20 -123.33, 20 -180 C20 -236.67, 3.33 -313.33, 0 -340 M0 0 C3.33 -30, 20 -123.33, 20 -180 C20 -236.67, 3.33 -313.33, 0 -340" stroke="#000000" stroke-width="4" fill="none"/></g><g transform="translate(10 490) rotate(180 10 -170)"><path d="M14.65 -313.82 C10.75 -320.79, 6.86 -327.75, 0 -340 M14.65 -313.82 C9.32 -323.36, 3.98 -332.89, 0 -340" stroke="#000000" stroke-width="4" fill="none"/></g><g transform="translate(10 490) rotate(180 10 -170)"><path d="M-5.6 -310.53 C-4.11 -318.37, -2.62 -326.21, 0 -340 M-5.6 -310.53 C-3.56 -321.26, -1.52 -332, 0 -340" stroke="#000000" stroke-width="4" fill="none"/></g></g><mask/><g stroke-linecap="round"><g transform="translate(490 150) rotate(0 -40 -40)"><path d="M0 0 C-13.33 -13.33, -66.67 -66.67, -80 -80 M0 0 C-13.33 -13.33, -66.67 -66.67, -80 -80" stroke="#1864ab" stroke-width="4" fill="none"/></g><g transform="translate(490 150) rotate(0 -40 -40)"><path d="M-52.81 -67.32 C-61.74 -71.49, -70.68 -75.65, -80 -80 M-52.81 -67.32 C-60.73 -71.01, -68.65 -74.71, -80 -80" stroke="#1864ab" stroke-width="4" fill="none"/></g><g transform="translate(490 150) rotate(0 -40 -40)"><path d="M-67.32 -52.81 C-71.49 -61.74, -75.65 -70.68, -80 -80 M-67.32 -52.81 C-71.01 -60.73, -74.71 -68.65, -80 -80" stroke="#1864ab" stroke-width="4" fill="none"/></g></g><mask/><g stroke-linecap="round"><g transform="translate(450 190) rotate(0 -30 -30)"><path d="M0 0 C-10 -10, -50 -50, -60 -60 M0 0 C-10 -10, -50 -50, -60 -60" stroke="#5c940d" stroke-width="4" fill="none"/></g><g transform="translate(450 190) rotate(0 -30 -30)"><path d="M-32.81 -47.32 C-42.64 -51.91, -52.48 -56.49, -60 -60 M-32.81 -47.32 C-42.21 -51.71, -51.62 -56.09, -60 -60" stroke="#5c940d" stroke-width="4" fill="none"/></g><g transform="translate(450 190) rotate(0 -30 -30)"><path d="M-47.32 -32.81 C-51.91 -42.64, -56.49 -52.48, -60 -60 M-47.32 -32.81 C-51.71 -42.21, -56.09 -51.62, -60 -60" stroke="#5c940d" stroke-width="4" fill="none"/></g></g><mask/><g stroke-linecap="round"><g transform="translate(410 230) rotate(0 -20 -20)"><path d="M0 0 C-6.67 -6.67, -33.33 -33.33, -40 -40 M0 0 C-6.67 -6.67, -33.33 -33.33, -40 -40" stroke="#c92a2a" stroke-width="4" fill="none"/></g><g transform="translate(410 230) rotate(0 -20 -20)"><path d="M-14.37 -28.05 C-22.09 -31.65, -29.81 -35.25, -40 -40 M-14.37 -28.05 C-22.93 -32.04, -31.5 -36.04, -40 -40" stroke="#c92a2a" stroke-width="4" fill="none"/></g><g transform="translate(410 230) rotate(0 -20 -20)"><path d="M-28.05 -14.37 C-31.65 -22.09, -35.25 -29.81, -40 -40 M-28.05 -14.37 C-32.04 -22.93, -36.04 -31.5, -40 -40" stroke="#c92a2a" stroke-width="4" fill="none"/></g></g><mask/></svg>