<svg version="1.1" xmlns="http://www.w3.org/2000/svg" viewBox="0 0 155 195" width="155" height="195">
  <!-- svg-source:excalidraw -->
  
  <defs>
    <style class="style-fonts">
      @font-face {
        font-family: "Virgil";
        src: url("https://excalidraw.com/Virgil.woff2");
      }
      @font-face {
        font-family: "Cascadia";
        src: url("https://excalidraw.com/Cascadia.woff2");
      }
    </style>
  </defs>
  <rect x="0" y="0" width="155" height="195" fill="#ffffff"/><g stroke-opacity="0.8" fill-opacity="0.8" stroke-linecap="round" transform="translate(10 30) rotate(0 67.5 77.5)"><path d="M0 0 C0 0, 0 0, 0 0 M0 0 C0 0, 0 0, 0 0 M0.2 2.82 C0.87 2.05, 1.55 1.27, 2.82 -0.2 M0.2 2.82 C0.85 2.07, 1.51 1.32, 2.82 -0.2 M-0.26 6.4 C1.17 4.75, 2.61 3.1, 4.99 0.36 M-0.26 6.4 C1.83 3.99, 3.93 1.58, 4.99 0.36 M-0.06 9.22 C2.25 6.56, 4.56 3.9, 7.81 0.16 M-0.06 9.22 C2.84 5.88, 5.74 2.54, 7.81 0.16 M0.13 12.04 C2.77 9.01, 5.41 5.97, 10.63 -0.03 M0.13 12.04 C2.28 9.57, 4.43 7.1, 10.63 -0.03 M-0.33 15.62 C3.25 11.5, 6.83 7.39, 13.45 -0.23 M-0.33 15.62 C3.04 11.74, 6.41 7.87, 13.45 -0.23 M-0.13 18.44 C5.73 11.7, 11.58 4.97, 15.62 0.33 M-0.13 18.44 C5.43 12.05, 10.99 5.65, 15.62 0.33 M0.07 21.26 C6.41 13.97, 12.75 6.67, 18.44 0.13 M0.07 21.26 C6.69 13.65, 13.31 6.03, 18.44 0.13 M0.27 24.08 C4.52 19.19, 8.77 14.3, 21.26 -0.07 M0.27 24.08 C6.56 16.85, 12.85 9.61, 21.26 -0.07 M-0.19 27.66 C9.41 16.61, 19.02 5.55, 24.08 -0.27 M-0.19 27.66 C5.73 20.85, 11.65 14.03, 24.08 -0.27 M0 30.48 C9.65 19.39, 19.29 8.3, 26.25 0.29 M0 30.48 C9.04 20.09, 18.07 9.69, 26.25 0.29 M0.2 33.3 C9.25 22.89, 18.3 12.48, 29.07 0.09 M0.2 33.3 C7.9 24.44, 15.6 15.59, 29.07 0.09 M-0.26 36.88 C10.88 24.06, 22.02 11.25, 31.89 -0.1 M-0.26 36.88 C7.14 28.36, 14.54 19.85, 31.89 -0.1 M-0.06 39.7 C8.87 29.43, 17.8 19.15, 34.71 -0.3 M-0.06 39.7 C8.42 29.95, 16.9 20.19, 34.71 -0.3 M0.14 42.52 C10.29 30.84, 20.44 19.17, 36.88 0.26 M0.14 42.52 C12.79 27.96, 25.44 13.41, 36.88 0.26 M-0.32 46.1 C9.29 35.04, 18.89 23.99, 39.7 0.06 M-0.32 46.1 C9.05 35.32, 18.41 24.55, 39.7 0.06 M-0.12 48.92 C14.78 31.78, 29.68 14.63, 42.52 -0.14 M-0.12 48.92 C13.42 33.34, 26.97 17.76, 42.52 -0.14 M0.07 51.74 C15.2 34.34, 30.33 16.94, 45.34 -0.34 M0.07 51.74 C15.47 34.03, 30.87 16.31, 45.34 -0.34 M0.27 54.56 C10.42 42.88, 20.58 31.2, 47.51 0.22 M0.27 54.56 C10.87 42.37, 21.47 30.17, 47.51 0.22 M-0.19 58.14 C13.25 42.67, 26.7 27.21, 50.33 0.02 M-0.19 58.14 C15.39 40.21, 30.97 22.29, 50.33 0.02 M0.01 60.96 C20.09 37.86, 40.17 14.76, 53.15 -0.17 M0.01 60.96 C20.36 37.55, 40.71 14.14, 53.15 -0.17 M0.21 63.78 C12.43 49.72, 24.65 35.66, 55.97 -0.37 M0.21 63.78 C18.56 42.67, 36.9 21.57, 55.97 -0.37 M-0.25 67.36 C23.09 40.5, 46.43 13.65, 58.14 0.19 M-0.25 67.36 C20.5 43.49, 41.25 19.62, 58.14 0.19 M-0.05 70.18 C14.16 53.82, 28.38 37.47, 60.96 -0.01 M-0.05 70.18 C14.34 53.62, 28.73 37.07, 60.96 -0.01 M0.14 73 C19.12 51.16, 38.1 29.33, 63.78 -0.21 M0.14 73 C22.25 47.57, 44.35 22.15, 63.78 -0.21 M-0.32 76.58 C13.16 61.07, 26.64 45.57, 65.95 0.35 M-0.32 76.58 C20 53.21, 40.32 29.83, 65.95 0.35 M-0.12 79.4 C23.8 51.88, 47.72 24.36, 68.77 0.15 M-0.12 79.4 C14.24 62.88, 28.59 46.37, 68.77 0.15 M0.08 82.22 C20.27 59, 40.45 35.77, 71.59 -0.04 M0.08 82.22 C18.86 60.62, 37.63 39.02, 71.59 -0.04 M0.28 85.04 C20.81 61.42, 41.34 37.81, 74.41 -0.24 M0.28 85.04 C17.46 65.27, 34.64 45.5, 74.41 -0.24 M-0.18 88.62 C21.16 64.06, 42.51 39.51, 76.58 0.32 M-0.18 88.62 C20.46 64.87, 41.1 41.12, 76.58 0.32 M0.01 91.44 C21.74 66.44, 43.47 41.44, 79.4 0.12 M0.01 91.44 C28.16 59.06, 56.31 26.68, 79.4 0.12 M0.21 94.26 C21.15 70.17, 42.09 46.09, 82.22 -0.08 M0.21 94.26 C27.65 62.7, 55.08 31.14, 82.22 -0.08 M-0.25 97.84 C32.19 60.52, 64.63 23.21, 85.04 -0.28 M-0.25 97.84 C30.24 62.76, 60.73 27.69, 85.04 -0.28 M-0.05 100.66 C29.16 67.06, 58.37 33.46, 87.21 0.28 M-0.05 100.66 C27.18 69.33, 54.42 38, 87.21 0.28 M0.15 103.48 C26.72 72.91, 53.29 42.35, 90.03 0.08 M0.15 103.48 C23.97 76.08, 47.79 48.68, 90.03 0.08 M-0.31 107.06 C27.03 75.61, 54.37 44.16, 92.85 -0.11 M-0.31 107.06 C27.45 75.12, 55.2 43.19, 92.85 -0.11 M-0.11 109.88 C35.79 68.58, 71.69 27.28, 95.67 -0.31 M-0.11 109.88 C32.97 71.81, 66.06 33.75, 95.67 -0.31 M0.08 112.7 C35.74 71.68, 71.39 30.67, 97.84 0.25 M0.08 112.7 C22.78 86.58, 45.49 60.47, 97.84 0.25 M0.28 115.52 C23.3 89.04, 46.32 62.56, 100.66 0.05 M0.28 115.52 C31.48 79.63, 62.67 43.75, 100.66 0.05 M-0.18 119.1 C24.51 90.7, 49.2 62.3, 103.48 -0.15 M-0.18 119.1 C30.8 83.46, 61.77 47.83, 103.48 -0.15 M0.02 121.92 C34.76 81.96, 69.49 42, 106.3 -0.34 M0.02 121.92 C33.69 83.18, 67.36 44.45, 106.3 -0.34 M0.22 124.74 C28.31 92.42, 56.4 60.11, 108.47 0.21 M0.22 124.74 C35.44 84.22, 70.67 43.7, 108.47 0.21 M-0.24 128.32 C43.4 78.11, 87.04 27.91, 111.29 0.02 M-0.24 128.32 C40.24 81.74, 80.73 35.17, 111.29 0.02 M-0.04 131.14 C26.3 100.83, 52.65 70.51, 114.11 -0.18 M-0.04 131.14 C43.71 80.8, 87.47 30.47, 114.11 -0.18 M0.15 133.96 C23.7 106.87, 47.25 79.78, 116.27 0.38 M0.15 133.96 C34.14 94.86, 68.12 55.77, 116.27 0.38 M-0.31 137.54 C24.82 108.63, 49.94 79.73, 119.1 0.18 M-0.31 137.54 C45.99 84.28, 92.28 31.03, 119.1 0.18 M-0.11 140.36 C48.44 84.51, 96.99 28.66, 121.92 -0.02 M-0.11 140.36 C47.82 85.22, 95.75 30.09, 121.92 -0.02 M0.09 143.18 C39.08 98.32, 78.08 53.46, 124.74 -0.22 M0.09 143.18 C37.17 100.52, 74.25 57.87, 124.74 -0.22 M0.29 146 C34.36 106.8, 68.43 67.61, 126.91 0.34 M0.29 146 C50.19 88.6, 100.09 31.19, 126.91 0.34 M-0.17 149.58 C39.95 103.42, 80.08 57.26, 129.73 0.14 M-0.17 149.58 C40.77 102.47, 81.72 55.37, 129.73 0.14 M0.02 152.4 C48.46 96.68, 96.89 40.96, 132.55 -0.05 M0.02 152.4 C35.96 111.06, 71.89 69.72, 132.55 -0.05 M0.22 155.22 C30.71 120.14, 61.21 85.06, 135.37 -0.25 M0.22 155.22 C39.06 110.54, 77.9 65.86, 135.37 -0.25 M3.04 155.02 C41.57 110.7, 80.09 66.39, 134.91 3.33 M3.04 155.02 C34.98 118.28, 66.92 81.54, 134.91 3.33 M5.21 155.58 C50.2 103.82, 95.19 52.07, 135.11 6.15 M5.21 155.58 C44.71 110.14, 84.21 64.7, 135.11 6.15 M8.03 155.38 C47.55 109.91, 87.08 64.45, 135.31 8.97 M8.03 155.38 C55.03 101.32, 102.02 47.25, 135.31 8.97 M10.85 155.18 C36.96 125.15, 63.08 95.11, 134.85 12.54 M10.85 155.18 C47.95 112.51, 85.05 69.83, 134.85 12.54 M13.67 154.99 C54.74 107.75, 95.8 60.51, 135.04 15.37 M13.67 154.99 C57.13 104.99, 100.59 55, 135.04 15.37 M15.84 155.54 C41.41 126.13, 66.98 96.71, 135.24 18.19 M15.84 155.54 C45.73 121.16, 75.62 86.77, 135.24 18.19 M18.66 155.35 C59.24 108.67, 99.82 61.98, 134.78 21.76 M18.66 155.35 C60.25 107.5, 101.84 59.66, 134.78 21.76 M21.48 155.15 C45.22 127.85, 68.95 100.54, 134.98 24.59 M21.48 155.15 C64.49 105.67, 107.5 56.2, 134.98 24.59 M24.3 154.95 C65.78 107.24, 107.26 59.53, 135.18 27.41 M24.3 154.95 C64.53 108.68, 104.76 62.4, 135.18 27.41 M26.47 155.51 C59.55 117.45, 92.63 79.4, 135.37 30.23 M26.47 155.51 C64.6 111.65, 102.73 67.78, 135.37 30.23 M29.29 155.31 C60.83 119.03, 92.38 82.74, 134.92 33.8 M29.29 155.31 C51.37 129.92, 73.44 104.52, 134.92 33.8 M32.11 155.12 C59.17 123.99, 86.22 92.87, 135.11 36.63 M32.11 155.12 C60.21 122.8, 88.3 90.48, 135.11 36.63 M34.93 154.92 C61.61 124.23, 88.29 93.53, 135.31 39.45 M34.93 154.92 C72.83 111.33, 110.72 67.74, 135.31 39.45 M37.1 155.48 C67.07 121, 97.04 86.53, 134.85 43.02 M37.1 155.48 C66.38 121.8, 95.65 88.12, 134.85 43.02 M39.92 155.28 C66.03 125.24, 92.14 95.2, 135.05 45.85 M39.92 155.28 C77.29 112.29, 114.66 69.3, 135.05 45.85 M42.74 155.08 C71.66 121.82, 100.57 88.56, 135.25 48.67 M42.74 155.08 C63.72 130.95, 84.69 106.83, 135.25 48.67 M45.56 154.88 C79.46 115.89, 113.35 76.9, 134.79 52.24 M45.56 154.88 C65.48 131.97, 85.4 109.06, 134.79 52.24 M47.73 155.44 C66.4 133.96, 85.07 112.49, 134.98 55.06 M47.73 155.44 C73.43 125.87, 99.14 96.3, 134.98 55.06 M50.55 155.24 C75.38 126.68, 100.21 98.11, 135.18 57.89 M50.55 155.24 C74.31 127.91, 98.07 100.58, 135.18 57.89 M53.37 155.05 C69.8 136.15, 86.22 117.26, 135.38 60.71 M53.37 155.05 C85.1 118.54, 116.84 82.04, 135.38 60.71 M56.19 154.85 C86.33 120.19, 116.46 85.52, 134.92 64.28 M56.19 154.85 C73.6 134.82, 91.01 114.8, 134.92 64.28 M58.36 155.41 C82.72 127.38, 107.08 99.36, 135.12 67.11 M58.36 155.41 C76.12 134.97, 93.89 114.53, 135.12 67.11 M61.18 155.21 C81.33 132.03, 101.48 108.85, 135.32 69.93 M61.18 155.21 C86.67 125.88, 112.16 96.56, 135.32 69.93 M64 155.01 C82.94 133.23, 101.87 111.45, 134.86 73.5 M64 155.01 C92.31 122.45, 120.61 89.89, 134.86 73.5 M66.17 155.57 C82.75 136.49, 99.34 117.41, 135.05 76.32 M66.17 155.57 C93.19 124.49, 120.21 93.41, 135.05 76.32 M68.99 155.37 C82.78 139.5, 96.58 123.64, 135.25 79.15 M68.99 155.37 C89.28 132.03, 109.57 108.69, 135.25 79.15 M71.81 155.17 C86.05 138.79, 100.29 122.41, 134.79 82.72 M71.81 155.17 C94.06 129.58, 116.31 103.99, 134.79 82.72 M74.63 154.98 C96.04 130.35, 117.46 105.71, 134.99 85.54 M74.63 154.98 C87.34 140.36, 100.04 125.75, 134.99 85.54 M76.8 155.53 C89.67 140.73, 102.54 125.93, 135.19 88.37 M76.8 155.53 C91.84 138.23, 106.89 120.92, 135.19 88.37 M79.62 155.34 C100.69 131.1, 121.75 106.87, 135.38 91.19 M79.62 155.34 C91.6 141.55, 103.59 127.76, 135.38 91.19 M82.44 155.14 C96.75 138.68, 111.06 122.22, 134.93 94.76 M82.44 155.14 C102.39 132.2, 122.33 109.25, 134.93 94.76 M85.26 154.94 C95.45 143.22, 105.64 131.51, 135.12 97.59 M85.26 154.94 C98.52 139.69, 111.79 124.43, 135.12 97.59 M87.43 155.5 C101.22 139.63, 115.02 123.76, 135.32 100.41 M87.43 155.5 C98.85 142.36, 110.28 129.22, 135.32 100.41 M90.25 155.3 C99.96 144.13, 109.67 132.97, 134.86 103.98 M90.25 155.3 C106.03 137.15, 121.81 119, 134.86 103.98 M93.07 155.11 C102.64 144.1, 112.21 133.09, 135.06 106.8 M93.07 155.11 C109.67 136.01, 126.26 116.92, 135.06 106.8 M95.89 154.91 C106.02 143.26, 116.15 131.61, 135.26 109.63 M95.89 154.91 C108.18 140.78, 120.46 126.64, 135.26 109.63 M98.06 155.47 C109.45 142.36, 120.84 129.26, 134.8 113.2 M98.06 155.47 C107.46 144.65, 116.86 133.83, 134.8 113.2 M100.88 155.27 C108.35 146.67, 115.83 138.07, 134.99 116.02 M100.88 155.27 C108.34 146.69, 115.8 138.1, 134.99 116.02 M103.7 155.07 C110.26 147.53, 116.82 139.98, 135.19 118.85 M103.7 155.07 C112.21 145.29, 120.71 135.5, 135.19 118.85 M106.52 154.87 C113.89 146.4, 121.25 137.93, 135.39 121.67 M106.52 154.87 C117.92 141.76, 129.32 128.64, 135.39 121.67 M108.69 155.43 C115.32 147.8, 121.96 140.16, 134.93 125.24 M108.69 155.43 C117.37 145.44, 126.06 135.45, 134.93 125.24 M111.51 155.23 C120.33 145.08, 129.16 134.93, 135.13 128.06 M111.51 155.23 C116.37 149.64, 121.24 144.04, 135.13 128.06 M114.33 155.04 C119.16 149.48, 124 143.92, 135.32 130.89 M114.33 155.04 C122.21 145.97, 130.1 136.9, 135.32 130.89 M117.15 154.84 C121.39 149.97, 125.62 145.09, 134.87 134.46 M117.15 154.84 C121.77 149.53, 126.38 144.22, 134.87 134.46 M119.32 155.4 C125.35 148.46, 131.38 141.53, 135.06 137.28 M119.32 155.4 C125.37 148.43, 131.43 141.46, 135.06 137.28 M122.14 155.2 C127.03 149.58, 131.92 143.95, 135.26 140.11 M122.14 155.2 C124.91 152.01, 127.69 148.81, 135.26 140.11 M124.96 155 C127.03 152.63, 129.09 150.25, 134.8 143.68 M124.96 155 C128.73 150.67, 132.49 146.34, 134.8 143.68 M127.13 155.56 C129.89 152.38, 132.65 149.21, 135 146.5 M127.13 155.56 C129.92 152.34, 132.72 149.13, 135 146.5 M129.95 155.36 C131.35 153.75, 132.75 152.14, 135.2 149.32 M129.95 155.36 C131.2 153.92, 132.45 152.49, 135.2 149.32 M132.77 155.17 C133.31 154.54, 133.86 153.91, 135.39 152.15 M132.77 155.17 C133.38 154.47, 133.98 153.77, 135.39 152.15" stroke="#228be6" stroke-width="0.25" fill="none"/><path d="M0 0 C47.99 0, 95.97 0, 135 0 M135 0 C135 32.9, 135 65.8, 135 155 M135 155 C105.69 155, 76.38 155, 0 155 M0 155 C0 116.88, 0 78.75, 0 0" stroke="#1864ab" stroke-width="1" fill="none" stroke-dasharray="1.5 6.5"/></g><g stroke-linecap="round"><g transform="translate(10 10) rotate(0 0 87.5)"><path d="M0 0 C0 29.17, 0 145.83, 0 175 M0 0 C0 29.17, 0 145.83, 0 175" stroke="#000000" stroke-width="4" fill="none"/></g></g><mask/><g stroke-linecap="round"><g transform="translate(145 10) rotate(0 0 87.5)"><path d="M0 0 C0 29.17, 0 145.83, 0 175 M0 0 C0 29.17, 0 145.83, 0 175" stroke="#000000" stroke-width="4" fill="none"/></g></g><mask/><g stroke-linecap="round"><g transform="translate(10 185) rotate(0 67.5 0)"><path d="M0 0 C22.5 0, 112.5 0, 135 0 M0 0 C22.5 0, 112.5 0, 135 0" stroke="#000000" stroke-width="4" fill="none"/></g></g><mask/><g stroke-linecap="round" transform="translate(75 135) rotate(0 5 5)"><path d="M10 5 C10 5.29, 9.97 5.58, 9.92 5.87 C9.87 6.15, 9.8 6.44, 9.7 6.71 C9.6 6.98, 9.47 7.25, 9.33 7.5 C9.19 7.75, 9.02 7.99, 8.83 8.21 C8.64 8.44, 8.44 8.64, 8.21 8.83 C7.99 9.02, 7.75 9.19, 7.5 9.33 C7.25 9.47, 6.98 9.6, 6.71 9.7 C6.44 9.8, 6.15 9.87, 5.87 9.92 C5.58 9.97, 5.29 10, 5 10 C4.71 10, 4.42 9.97, 4.13 9.92 C3.85 9.87, 3.56 9.8, 3.29 9.7 C3.02 9.6, 2.75 9.47, 2.5 9.33 C2.25 9.19, 2.01 9.02, 1.79 8.83 C1.56 8.64, 1.36 8.44, 1.17 8.21 C0.98 7.99, 0.81 7.75, 0.67 7.5 C0.53 7.25, 0.4 6.98, 0.3 6.71 C0.2 6.44, 0.13 6.15, 0.08 5.87 C0.03 5.58, 0 5.29, 0 5 C0 4.71, 0.03 4.42, 0.08 4.13 C0.13 3.85, 0.2 3.56, 0.3 3.29 C0.4 3.02, 0.53 2.75, 0.67 2.5 C0.81 2.25, 0.98 2.01, 1.17 1.79 C1.36 1.56, 1.56 1.36, 1.79 1.17 C2.01 0.98, 2.25 0.81, 2.5 0.67 C2.75 0.53, 3.02 0.4, 3.29 0.3 C3.56 0.2, 3.85 0.13, 4.13 0.08 C4.42 0.03, 4.71 0, 5 0 C5.29 0, 5.58 0.03, 5.87 0.08 C6.15 0.13, 6.44 0.2, 6.71 0.3 C6.98 0.4, 7.25 0.53, 7.5 0.67 C7.75 0.81, 7.99 0.98, 8.21 1.17 C8.44 1.36, 8.64 1.56, 8.83 1.79 C9.02 2.01, 9.19 2.25, 9.33 2.5 C9.47 2.75, 9.6 3.02, 9.7 3.29 C9.8 3.56, 9.87 3.85, 9.92 4.13 C9.97 4.42, 9.99 4.86, 10 5 C10.01 5.14, 10.01 4.86, 10 5" stroke="none" stroke-width="0" fill="#228be6"/><path d="M10 5 C10 5.29, 9.97 5.58, 9.92 5.87 C9.87 6.15, 9.8 6.44, 9.7 6.71 C9.6 6.98, 9.47 7.25, 9.33 7.5 C9.19 7.75, 9.02 7.99, 8.83 8.21 C8.64 8.44, 8.44 8.64, 8.21 8.83 C7.99 9.02, 7.75 9.19, 7.5 9.33 C7.25 9.47, 6.98 9.6, 6.71 9.7 C6.44 9.8, 6.15 9.87, 5.87 9.92 C5.58 9.97, 5.29 10, 5 10 C4.71 10, 4.42 9.97, 4.13 9.92 C3.85 9.87, 3.56 9.8, 3.29 9.7 C3.02 9.6, 2.75 9.47, 2.5 9.33 C2.25 9.19, 2.01 9.02, 1.79 8.83 C1.56 8.64, 1.36 8.44, 1.17 8.21 C0.98 7.99, 0.81 7.75, 0.67 7.5 C0.53 7.25, 0.4 6.98, 0.3 6.71 C0.2 6.44, 0.13 6.15, 0.08 5.87 C0.03 5.58, 0 5.29, 0 5 C0 4.71, 0.03 4.42, 0.08 4.13 C0.13 3.85, 0.2 3.56, 0.3 3.29 C0.4 3.02, 0.53 2.75, 0.67 2.5 C0.81 2.25, 0.98 2.01, 1.17 1.79 C1.36 1.56, 1.56 1.36, 1.79 1.17 C2.01 0.98, 2.25 0.81, 2.5 0.67 C2.75 0.53, 3.02 0.4, 3.29 0.3 C3.56 0.2, 3.85 0.13, 4.13 0.08 C4.42 0.03, 4.71 0, 5 0 C5.29 0, 5.58 0.03, 5.87 0.08 C6.15 0.13, 6.44 0.2, 6.71 0.3 C6.98 0.4, 7.25 0.53, 7.5 0.67 C7.75 0.81, 7.99 0.98, 8.21 1.17 C8.44 1.36, 8.64 1.56, 8.83 1.79 C9.02 2.01, 9.19 2.25, 9.33 2.5 C9.47 2.75, 9.6 3.02, 9.7 3.29 C9.8 3.56, 9.87 3.85, 9.92 4.13 C9.97 4.42, 9.99 4.86, 10 5 C10.01 5.14, 10.01 4.86, 10 5" stroke="#1864ab" stroke-width="0.5" fill="none"/></g><g stroke-linecap="round"><g transform="translate(80 130) rotate(0 0 -11.378901728127516)"><path d="M0 0 C0 -3.79, 0 -18.96, 0 -22.76 M0 0 C0 -3.79, 0 -18.96, 0 -22.76" stroke="#000000" stroke-width="1" fill="none"/></g><g transform="translate(80 130) rotate(0 0 -11.378901728127516)"><path d="M3.89 -12.07 C3.01 -14.49, 2.12 -16.92, 0 -22.76 M3.89 -12.07 C2.96 -14.61, 2.04 -17.16, 0 -22.76" stroke="#000000" stroke-width="1" fill="none"/></g><g transform="translate(80 130) rotate(0 0 -11.378901728127516)"><path d="M-3.89 -12.07 C-3.01 -14.49, -2.12 -16.92, 0 -22.76 M-3.89 -12.07 C-2.96 -14.61, -2.04 -17.16, 0 -22.76" stroke="#000000" stroke-width="1" fill="none"/></g></g><mask/><g stroke-linecap="round"><g transform="translate(80 150) rotate(0 0 10)"><path d="M0 0 C0 3.33, 0 16.67, 0 20 M0 0 C0 3.33, 0 16.67, 0 20" stroke="#000000" stroke-width="1" fill="none"/></g><g transform="translate(80 150) rotate(0 0 10)"><path d="M-3.42 10.6 C-2.69 12.61, -1.96 14.62, 0 20 M-3.42 10.6 C-2.25 13.81, -1.09 17.01, 0 20" stroke="#000000" stroke-width="1" fill="none"/></g><g transform="translate(80 150) rotate(0 0 10)"><path d="M3.42 10.6 C2.69 12.61, 1.96 14.62, 0 20 M3.42 10.6 C2.25 13.81, 1.09 17.01, 0 20" stroke="#000000" stroke-width="1" fill="none"/></g></g><mask/><g stroke-linecap="round"><g transform="translate(90 140) rotate(0 12.5 0)"><path d="M0 0 C4.17 0, 20.83 0, 25 0 M0 0 C4.17 0, 20.83 0, 25 0" stroke="#000000" stroke-width="1" fill="none"/></g><g transform="translate(90 140) rotate(0 12.5 0)"><path d="M13.25 4.28 C15.91 3.31, 18.56 2.34, 25 0 M13.25 4.28 C16.37 3.14, 19.48 2.01, 25 0" stroke="#000000" stroke-width="1" fill="none"/></g><g transform="translate(90 140) rotate(0 12.5 0)"><path d="M13.25 -4.28 C15.91 -3.31, 18.56 -2.34, 25 0 M13.25 -4.28 C16.37 -3.14, 19.48 -2.01, 25 0" stroke="#000000" stroke-width="1" fill="none"/></g></g><mask/><g stroke-linecap="round"><g transform="translate(70 140) rotate(0 -12.5 0)"><path d="M0 0 C-4.17 0, -20.83 0, -25 0 M0 0 C-4.17 0, -20.83 0, -25 0" stroke="#000000" stroke-width="1" fill="none"/></g><g transform="translate(70 140) rotate(0 -12.5 0)"><path d="M-13.25 -4.28 C-15.73 -3.37, -18.21 -2.47, -25 0 M-13.25 -4.28 C-17.07 -2.89, -20.88 -1.5, -25 0" stroke="#000000" stroke-width="1" fill="none"/></g><g transform="translate(70 140) rotate(0 -12.5 0)"><path d="M-13.25 4.28 C-15.73 3.37, -18.21 2.47, -25 0 M-13.25 4.28 C-17.07 2.89, -20.88 1.5, -25 0" stroke="#000000" stroke-width="1" fill="none"/></g></g><mask/><g stroke-linecap="round"><g transform="translate(70 150) rotate(0 -7.5 7.5)"><path d="M0 0 C-2.5 2.5, -12.5 12.5, -15 15 M0 0 C-2.5 2.5, -12.5 12.5, -15 15" stroke="#000000" stroke-width="1" fill="none"/></g><g transform="translate(70 150) rotate(0 -7.5 7.5)"><path d="M-10.52 5.39 C-11.58 7.67, -12.65 9.95, -15 15 M-10.52 5.39 C-11.53 7.56, -12.55 9.74, -15 15" stroke="#000000" stroke-width="1" fill="none"/></g><g transform="translate(70 150) rotate(0 -7.5 7.5)"><path d="M-5.39 10.52 C-7.67 11.58, -9.95 12.65, -15 15 M-5.39 10.52 C-7.56 11.53, -9.74 12.55, -15 15" stroke="#000000" stroke-width="1" fill="none"/></g></g><mask/><g stroke-linecap="round"><g transform="translate(90 150) rotate(0 7.5 7.5)"><path d="M0 0 C2.5 2.5, 12.5 12.5, 15 15 M0 0 C2.5 2.5, 12.5 12.5, 15 15" stroke="#000000" stroke-width="1" fill="none"/></g><g transform="translate(90 150) rotate(0 7.5 7.5)"><path d="M5.39 10.52 C7.72 11.61, 10.05 12.69, 15 15 M5.39 10.52 C7.71 11.6, 10.03 12.68, 15 15" stroke="#000000" stroke-width="1" fill="none"/></g><g transform="translate(90 150) rotate(0 7.5 7.5)"><path d="M10.52 5.39 C11.61 7.72, 12.69 10.05, 15 15 M10.52 5.39 C11.6 7.71, 12.68 10.03, 15 15" stroke="#000000" stroke-width="1" fill="none"/></g></g><mask/><g stroke-linecap="round"><g transform="translate(70 130) rotate(0 -7.5 -7.5)"><path d="M0 0 C-2.5 -2.5, -12.5 -12.5, -15 -15 M0 0 C-2.5 -2.5, -12.5 -12.5, -15 -15" stroke="#000000" stroke-width="1" fill="none"/></g><g transform="translate(70 130) rotate(0 -7.5 -7.5)"><path d="M-5.39 -10.52 C-7.81 -11.65, -10.24 -12.78, -15 -15 M-5.39 -10.52 C-8.29 -11.87, -11.2 -13.23, -15 -15" stroke="#000000" stroke-width="1" fill="none"/></g><g transform="translate(70 130) rotate(0 -7.5 -7.5)"><path d="M-10.52 -5.39 C-11.65 -7.81, -12.78 -10.24, -15 -15 M-10.52 -5.39 C-11.87 -8.29, -13.23 -11.2, -15 -15" stroke="#000000" stroke-width="1" fill="none"/></g></g><mask/><g stroke-linecap="round"><g transform="translate(90 130) rotate(0 7.5 -7.5)"><path d="M0 0 C2.5 -2.5, 12.5 -12.5, 15 -15 M0 0 C2.5 -2.5, 12.5 -12.5, 15 -15" stroke="#000000" stroke-width="1" fill="none"/></g><g transform="translate(90 130) rotate(0 7.5 -7.5)"><path d="M10.52 -5.39 C11.77 -8.08, 13.03 -10.77, 15 -15 M10.52 -5.39 C11.79 -8.11, 13.06 -10.83, 15 -15" stroke="#000000" stroke-width="1" fill="none"/></g><g transform="translate(90 130) rotate(0 7.5 -7.5)"><path d="M5.39 -10.52 C8.08 -11.77, 10.77 -13.03, 15 -15 M5.39 -10.52 C8.11 -11.79, 10.83 -13.06, 15 -15" stroke="#000000" stroke-width="1" fill="none"/></g></g><mask/><g stroke-linecap="round" transform="translate(75 25) rotate(0 5 5)"><path d="M10 5 C10 5.29, 9.97 5.58, 9.92 5.87 C9.87 6.15, 9.8 6.44, 9.7 6.71 C9.6 6.98, 9.47 7.25, 9.33 7.5 C9.19 7.75, 9.02 7.99, 8.83 8.21 C8.64 8.44, 8.44 8.64, 8.21 8.83 C7.99 9.02, 7.75 9.19, 7.5 9.33 C7.25 9.47, 6.98 9.6, 6.71 9.7 C6.44 9.8, 6.15 9.87, 5.87 9.92 C5.58 9.97, 5.29 10, 5 10 C4.71 10, 4.42 9.97, 4.13 9.92 C3.85 9.87, 3.56 9.8, 3.29 9.7 C3.02 9.6, 2.75 9.47, 2.5 9.33 C2.25 9.19, 2.01 9.02, 1.79 8.83 C1.56 8.64, 1.36 8.44, 1.17 8.21 C0.98 7.99, 0.81 7.75, 0.67 7.5 C0.53 7.25, 0.4 6.98, 0.3 6.71 C0.2 6.44, 0.13 6.15, 0.08 5.87 C0.03 5.58, 0 5.29, 0 5 C0 4.71, 0.03 4.42, 0.08 4.13 C0.13 3.85, 0.2 3.56, 0.3 3.29 C0.4 3.02, 0.53 2.75, 0.67 2.5 C0.81 2.25, 0.98 2.01, 1.17 1.79 C1.36 1.56, 1.56 1.36, 1.79 1.17 C2.01 0.98, 2.25 0.81, 2.5 0.67 C2.75 0.53, 3.02 0.4, 3.29 0.3 C3.56 0.2, 3.85 0.13, 4.13 0.08 C4.42 0.03, 4.71 0, 5 0 C5.29 0, 5.58 0.03, 5.87 0.08 C6.15 0.13, 6.44 0.2, 6.71 0.3 C6.98 0.4, 7.25 0.53, 7.5 0.67 C7.75 0.81, 7.99 0.98, 8.21 1.17 C8.44 1.36, 8.64 1.56, 8.83 1.79 C9.02 2.01, 9.19 2.25, 9.33 2.5 C9.47 2.75, 9.6 3.02, 9.7 3.29 C9.8 3.56, 9.87 3.85, 9.92 4.13 C9.97 4.42, 9.99 4.86, 10 5 C10.01 5.14, 10.01 4.86, 10 5" stroke="none" stroke-width="0" fill="#228be6"/><path d="M10 5 C10 5.29, 9.97 5.58, 9.92 5.87 C9.87 6.15, 9.8 6.44, 9.7 6.71 C9.6 6.98, 9.47 7.25, 9.33 7.5 C9.19 7.75, 9.02 7.99, 8.83 8.21 C8.64 8.44, 8.44 8.64, 8.21 8.83 C7.99 9.02, 7.75 9.19, 7.5 9.33 C7.25 9.47, 6.98 9.6, 6.71 9.7 C6.44 9.8, 6.15 9.87, 5.87 9.92 C5.58 9.97, 5.29 10, 5 10 C4.71 10, 4.42 9.97, 4.13 9.92 C3.85 9.87, 3.56 9.8, 3.29 9.7 C3.02 9.6, 2.75 9.47, 2.5 9.33 C2.25 9.19, 2.01 9.02, 1.79 8.83 C1.56 8.64, 1.36 8.44, 1.17 8.21 C0.98 7.99, 0.81 7.75, 0.67 7.5 C0.53 7.25, 0.4 6.98, 0.3 6.71 C0.2 6.44, 0.13 6.15, 0.08 5.87 C0.03 5.58, 0 5.29, 0 5 C0 4.71, 0.03 4.42, 0.08 4.13 C0.13 3.85, 0.2 3.56, 0.3 3.29 C0.4 3.02, 0.53 2.75, 0.67 2.5 C0.81 2.25, 0.98 2.01, 1.17 1.79 C1.36 1.56, 1.56 1.36, 1.79 1.17 C2.01 0.98, 2.25 0.81, 2.5 0.67 C2.75 0.53, 3.02 0.4, 3.29 0.3 C3.56 0.2, 3.85 0.13, 4.13 0.08 C4.42 0.03, 4.71 0, 5 0 C5.29 0, 5.58 0.03, 5.87 0.08 C6.15 0.13, 6.44 0.2, 6.71 0.3 C6.98 0.4, 7.25 0.53, 7.5 0.67 C7.75 0.81, 7.99 0.98, 8.21 1.17 C8.44 1.36, 8.64 1.56, 8.83 1.79 C9.02 2.01, 9.19 2.25, 9.33 2.5 C9.47 2.75, 9.6 3.02, 9.7 3.29 C9.8 3.56, 9.87 3.85, 9.92 4.13 C9.97 4.42, 9.99 4.86, 10 5 C10.01 5.14, 10.01 4.86, 10 5" stroke="#1864ab" stroke-width="0.5" fill="none"/></g><g stroke-linecap="round"><g transform="translate(80 40) rotate(0 0 10)"><path d="M0 0 C0 3.33, 0 16.67, 0 20 M0 0 C0 3.33, 0 16.67, 0 20" stroke="#000000" stroke-width="1" fill="none"/></g><g transform="translate(80 40) rotate(0 0 10)"><path d="M-3.42 10.6 C-2.71 12.56, -2 14.52, 0 20 M-3.42 10.6 C-2.29 13.72, -1.15 16.84, 0 20" stroke="#000000" stroke-width="1" fill="none"/></g><g transform="translate(80 40) rotate(0 0 10)"><path d="M3.42 10.6 C2.71 12.56, 2 14.52, 0 20 M3.42 10.6 C2.29 13.72, 1.15 16.84, 0 20" stroke="#000000" stroke-width="1" fill="none"/></g></g><mask/><g stroke-linecap="round"><g transform="translate(90 30) rotate(0 12.5 0)"><path d="M0 0 C4.17 0, 20.83 0, 25 0 M0 0 C4.17 0, 20.83 0, 25 0" stroke="#000000" stroke-width="1" fill="none"/></g><g transform="translate(90 30) rotate(0 12.5 0)"><path d="M13.25 4.28 C17.91 2.58, 22.57 0.88, 25 0 M13.25 4.28 C17.02 2.9, 20.79 1.53, 25 0" stroke="#000000" stroke-width="1" fill="none"/></g><g transform="translate(90 30) rotate(0 12.5 0)"><path d="M13.25 -4.28 C17.91 -2.58, 22.57 -0.88, 25 0 M13.25 -4.28 C17.02 -2.9, 20.79 -1.53, 25 0" stroke="#000000" stroke-width="1" fill="none"/></g></g><mask/><g stroke-linecap="round"><g transform="translate(70 30) rotate(0 -12.5 0)"><path d="M0 0 C-4.17 0, -20.83 0, -25 0 M0 0 C-4.17 0, -20.83 0, -25 0" stroke="#000000" stroke-width="1" fill="none"/></g><g transform="translate(70 30) rotate(0 -12.5 0)"><path d="M-13.25 -4.28 C-17.17 -2.85, -21.08 -1.43, -25 0 M-13.25 -4.28 C-17.07 -2.89, -20.88 -1.5, -25 0" stroke="#000000" stroke-width="1" fill="none"/></g><g transform="translate(70 30) rotate(0 -12.5 0)"><path d="M-13.25 4.28 C-17.17 2.85, -21.08 1.43, -25 0 M-13.25 4.28 C-17.07 2.89, -20.88 1.5, -25 0" stroke="#000000" stroke-width="1" fill="none"/></g></g><mask/><g stroke-linecap="round"><g transform="translate(70 40) rotate(0 -7.5 7.5)"><path d="M0 0 C-2.5 2.5, -12.5 12.5, -15 15 M0 0 C-2.5 2.5, -12.5 12.5, -15 15" stroke="#000000" stroke-width="1" fill="none"/></g><g transform="translate(70 40) rotate(0 -7.5 7.5)"><path d="M-10.52 5.39 C-11.79 8.12, -13.07 10.86, -15 15 M-10.52 5.39 C-11.99 8.55, -13.47 11.71, -15 15" stroke="#000000" stroke-width="1" fill="none"/></g><g transform="translate(70 40) rotate(0 -7.5 7.5)"><path d="M-5.39 10.52 C-8.12 11.79, -10.86 13.07, -15 15 M-5.39 10.52 C-8.55 11.99, -11.71 13.47, -15 15" stroke="#000000" stroke-width="1" fill="none"/></g></g><mask/><g stroke-linecap="round"><g transform="translate(90 40) rotate(0 7.5 7.5)"><path d="M0 0 C2.5 2.5, 12.5 12.5, 15 15 M0 0 C2.5 2.5, 12.5 12.5, 15 15" stroke="#000000" stroke-width="1" fill="none"/></g><g transform="translate(90 40) rotate(0 7.5 7.5)"><path d="M5.39 10.52 C7.49 11.5, 9.6 12.48, 15 15 M5.39 10.52 C7.97 11.72, 10.55 12.92, 15 15" stroke="#000000" stroke-width="1" fill="none"/></g><g transform="translate(90 40) rotate(0 7.5 7.5)"><path d="M10.52 5.39 C11.5 7.49, 12.48 9.6, 15 15 M10.52 5.39 C11.72 7.97, 12.92 10.55, 15 15" stroke="#000000" stroke-width="1" fill="none"/></g></g><mask/></svg>