<?xml version="1.0" encoding="UTF-8" standalone="no"?>
<svg
   version="1.1"
   id="Layer_1"
   x="0px"
   y="0px"
   viewBox="0 0 199.99999 200"
   enable-background="new 0 0 2663.548 1022.088"
   xml:space="preserve"
   sodipodi:docname="mind-in-christ.ico"
   inkscape:version="1.2.1 (9c6d41e410, 2022-07-14)"
   width="200"
   height="200"
   inkscape:export-filename="favicon.png"
   inkscape:export-xdpi="300"
   inkscape:export-ydpi="300"
   xmlns:inkscape="http://www.inkscape.org/namespaces/inkscape"
   xmlns:sodipodi="http://sodipodi.sourceforge.net/DTD/sodipodi-0.dtd"
   xmlns="http://www.w3.org/2000/svg"
   xmlns:svg="http://www.w3.org/2000/svg"><defs
   id="defs19" /><sodipodi:namedview
   id="namedview17"
   pagecolor="#ffffff"
   bordercolor="#000000"
   borderopacity="0.25"
   inkscape:showpageshadow="2"
   inkscape:pageopacity="0.0"
   inkscape:pagecheckerboard="0"
   inkscape:deskcolor="#d1d1d1"
   showgrid="false"
   inkscape:zoom="1.950055"
   inkscape:cx="22.563466"
   inkscape:cy="157.17505"
   inkscape:window-width="1920"
   inkscape:window-height="1051"
   inkscape:window-x="1341"
   inkscape:window-y="-9"
   inkscape:window-maximized="1"
   inkscape:current-layer="g361" />
<g
   id="g14">
	
	<g
   id="g361"><g
     id="g367"
     transform="matrix(0.07758298,0,0,0.07758298,-3.3230344,60.351761)"><path
       d="m 2461.185,158.608 150.59,7.686 c -89.716,132.656 -184.556,246.703 -286.438,344.749 102.526,98.046 197.366,212.108 286.438,344.749 l -150.59,7.686 c -72.411,-99.964 -149.302,-189.035 -231.331,-266.57 -57.668,47.42 -117.913,90.36 -180.705,128.805 -249.266,152.508 -538.265,230.043 -858.668,230.043 -355.642,0 -632.475,-107.65 -802.288,-197.995 C 203.008,659.715 102.4,560.381 97.92,556.545 L 51.774,511.043 97.92,465.556 c 3.836,-4.495 105.088,-103.17 290.273,-201.216 169.813,-90.36 447.276,-198.01 802.288,-198.01 320.403,0 609.402,77.535 858.668,230.043 62.792,38.46 123.037,81.385 180.705,128.805 82.029,-77.534 158.92,-165.962 231.331,-266.57 z M 1189.836,827.596 c 365.261,0 676.689,-104.444 941.342,-316.552 -265.297,-212.094 -576.081,-316.552 -941.342,-316.552 -326.801,0 -581.205,98.69 -737.563,180.705 -95.469,49.982 -167.251,100.608 -211.464,135.847 44.858,34.61 115.995,85.236 211.464,135.847 156.358,82.674 410.763,180.705 737.563,180.705 z"
       id="path2" /><g
       id="g12"
       transform="translate(0,-4)">
		<g
   id="g10">
			
			
			
		<circle
   style="fill:#000000;stroke-width:0.820442"
   id="path345"
   cx="1200.53"
   cy="515.49359"
   r="301.93655" /></g>
	</g></g></g>
</g>
</svg>
