<?xml version="1.0" encoding="UTF-8" standalone="no"?>
<svg
   version="1.1"
   id="Layer_1"
   x="0px"
   y="0px"
   viewBox="0 0 199.99999 200"
   enable-background="new 0 0 2663.548 1022.088"
   xml:space="preserve"
   sodipodi:docname="anqi-website.svg"
   inkscape:version="1.3 (0e150ed6c4, 2023-07-21)"
   width="200"
   height="200"
   inkscape:export-filename="favicon.png"
   inkscape:export-xdpi="300"
   inkscape:export-ydpi="300"
   xmlns:inkscape="http://www.inkscape.org/namespaces/inkscape"
   xmlns:sodipodi="http://sodipodi.sourceforge.net/DTD/sodipodi-0.dtd"
   xmlns="http://www.w3.org/2000/svg"
   xmlns:svg="http://www.w3.org/2000/svg"><defs
   id="defs19" /><sodipodi:namedview
   id="namedview17"
   pagecolor="#ffffff"
   bordercolor="#000000"
   borderopacity="0.25"
   inkscape:showpageshadow="2"
   inkscape:pageopacity="0.0"
   inkscape:pagecheckerboard="0"
   inkscape:deskcolor="#d1d1d1"
   showgrid="false"
   inkscape:zoom="2.7577942"
   inkscape:cx="80.499117"
   inkscape:cy="103.34346"
   inkscape:window-width="1718"
   inkscape:window-height="1358"
   inkscape:window-x="853"
   inkscape:window-y="1"
   inkscape:window-maximized="0"
   inkscape:current-layer="g361" />&#10;<g
   id="g14">&#10;	&#10;	<g
   id="g361"><g
     id="g367"
     transform="matrix(0.07758298,0,0,0.07758298,-3.3230344,60.351761)"><path
       d="m 2461.185,158.608 150.59,7.686 c -89.716,132.656 -184.556,246.703 -286.438,344.749 102.526,98.046 197.366,212.108 286.438,344.749 l -150.59,7.686 c -72.411,-99.964 -149.302,-189.035 -231.331,-266.57 -57.668,47.42 -117.913,90.36 -180.705,128.805 -249.266,152.508 -538.265,230.043 -858.668,230.043 -355.642,0 -632.475,-107.65 -802.288,-197.995 C 203.008,659.715 102.4,560.381 97.92,556.545 L 51.774,511.043 97.92,465.556 c 3.836,-4.495 105.088,-103.17 290.273,-201.216 169.813,-90.36 447.276,-198.01 802.288,-198.01 320.403,0 609.402,77.535 858.668,230.043 62.792,38.46 123.037,81.385 180.705,128.805 82.029,-77.534 158.92,-165.962 231.331,-266.57 z M 1189.836,827.596 c 365.261,0 676.689,-104.444 941.342,-316.552 -265.297,-212.094 -576.081,-316.552 -941.342,-316.552 -326.801,0 -581.205,98.69 -737.563,180.705 -95.469,49.982 -167.251,100.608 -211.464,135.847 44.858,34.61 115.995,85.236 211.464,135.847 156.358,82.674 410.763,180.705 737.563,180.705 z"
       id="path2" /></g><g
     style="fill:#000000;stroke:#000000;stroke-width:0.00512"
     id="g2"
     transform="matrix(0.09150229,0,0,0.09150177,66.306739,76.897341)"><g
       id="SVGRepo_bgCarrier"
       stroke-width="0" /><g
       id="SVGRepo_tracerCarrier"
       stroke-linecap="round"
       stroke-linejoin="round"
       stroke="#cccccc"
       stroke-width="24.576" /><g
       id="SVGRepo_iconCarrier"> <style
   type="text/css"
   id="style1"> .st0{fill:#000;} </style> <g
   id="g1"> <path
   class="st0"
   d="M 491.875,156.347 C 472.429,110.389 439.986,71.328 399.139,43.734 358.3,16.13 308.962,-0.008 255.996,0 220.691,0 186.98,7.168 156.346,20.124 110.381,39.571 71.321,72.006 43.725,112.86 16.122,153.692 -0.016,203.03 0,255.996 c -0.008,35.313 7.16,69.016 20.125,99.658 19.438,45.958 51.881,85.018 92.728,112.613 40.839,27.603 90.177,43.741 143.143,43.733 35.305,0 69.016,-7.168 99.649,-20.125 45.966,-19.446 85.018,-51.882 112.621,-92.736 C 495.87,358.308 512,308.97 512,255.996 c 0,-35.305 -7.168,-69.008 -20.125,-99.649 z M 374.27,351.228 c -8.571,14.798 -1.69,35.384 -12.262,48.78 -10.947,13.514 -16.513,10.221 -24.295,28.328 -0.853,2.36 -14.742,31.917 -18.211,23.122 3.054,7.854 -0.383,15.66 -10.357,16.274 -7.95,0.47 -2.233,5.071 -4.704,8.252 -9.863,2.17 -19.965,3.708 -30.274,4.521 -6.928,-25.299 -10.74,-54.6 -10.565,-62.972 0.638,-32.484 -6.609,-19.327 -23.609,-43.342 -11.616,-16.513 -21.91,-34.803 -21.304,-55.733 -0.088,3.74 23.329,-53.086 6.426,-42.25 -20.532,13.172 -24.311,-14.567 -44.092,-17.158 -10.102,-1.339 -7.16,-11.768 -18.49,-9.982 -10.174,1.594 -21.735,-11.904 -29.277,-16.991 -4.951,-3.572 -13.578,-51.619 -20.842,-50.933 -10.373,0.383 7.598,33.049 3.835,34.142 -7.742,1.451 -21.313,-46.093 -21.057,-50.008 0.39,-12.63 -0.83,-19.75 7.527,-30.251 3.245,-4.226 21.718,-20.475 19.773,-26.304 -3.308,-10.166 -1.602,-22.022 -6.905,-28.831 4.681,-3.739 9.504,-7.311 14.487,-10.677 10.31,-6.968 21.249,-13.076 32.675,-18.282 1.332,-0.04 2.663,-0.096 3.97,-0.239 10.206,-0.997 20.627,-4.959 30.992,-3.388 13.666,2.008 28.488,7.893 42.88,6.769 13.251,-0.933 50.638,-12.949 62,-3.254 5.015,4.306 -56.443,21.72 -58.396,30.043 -0.997,5.422 16.002,4.944 17.469,5.079 17.087,1.403 -4.241,15.452 6.252,18.481 16.114,3.891 27.738,-56.338 41.205,-24.844 5.502,13.06 24.406,-8.547 26.543,7.566 2.153,16.951 18.426,22.684 -11.506,24.885 -28.073,2.28 -4.864,14.726 -23.186,22.811 -17.525,7.718 -33.552,11.107 -46.46,26.966 -14.559,17.987 -15.954,17.389 -21.671,40.408 -3.15,12.565 -19.678,-8.842 -13.371,-16.696 -2.185,2.694 -21.544,-6.1 -23.466,-1.587 -3.755,8.706 -13.961,4.035 -21.982,9.369 -10.142,6.706 -20.077,28.44 -9.927,38.63 8.125,8.101 36.095,-17.884 37.618,-9.01 1.196,6.786 -9.919,11.601 -8.706,18.387 1.746,9.823 18.872,-2.815 18.864,4.816 0.008,4.895 -0.805,25.355 14.272,20.236 8.125,-2.774 8.93,3.046 14.009,1.826 6.96,-1.683 10.07,-10.963 18.275,-9.752 9.766,1.427 20.714,6.371 30.074,9.13 15.213,4.504 14.535,17.214 31.463,19.821 16.911,2.663 10.15,18.323 8.068,27.197 0.975,7.997 71.075,-3.811 46.238,36.645 z m 66.441,-224.095 c 0.686,0.981 1.403,1.954 2.066,2.95 4.01,5.916 7.71,12.064 11.138,18.378 -1.443,0.494 -2.806,0.893 -3.851,1.012 -4.417,0.558 -11.585,-3.301 -12.685,-4.959 -0.886,-1.323 2.089,-12.788 3.332,-17.381 z m 40.512,130.099 c -1.252,-0.702 -2.615,-1.077 -4.138,-0.766 -5.518,1.1 -26.471,6.618 -34.189,5.509 -7.726,-1.108 -31.981,-24.262 -31.981,-29.779 0,-5.51 1.101,-26.471 3.301,-29.78 2.209,-3.309 14.336,-18.426 18.753,-25.036 4.409,-6.625 11.027,-15.436 16.544,-16.544 1.715,-0.343 5.375,-1.012 9.824,-1.834 14.032,29.374 21.902,62.231 21.91,96.994 0,0.415 -0.024,0.813 -0.024,1.236 z"
   id="path1" /> </g> </g></g></g>&#10;</g>&#10;</svg>
