<?xml version="1.0" encoding="UTF-8" standalone="no"?>

<svg
   fill="#000000"
   version="1.1"
   id="Capa_1"
   width="800px"
   height="800px"
   viewBox="0 0 455.416 455.416"
   xml:space="preserve"
   sodipodi:docname="road-with-broken-line-svgrepo-com.svg"
   inkscape:version="1.2.1 (9c6d41e410, 2022-07-14)"
   xmlns:inkscape="http://www.inkscape.org/namespaces/inkscape"
   xmlns:sodipodi="http://sodipodi.sourceforge.net/DTD/sodipodi-0.dtd"
   xmlns="http://www.w3.org/2000/svg"
   xmlns:svg="http://www.w3.org/2000/svg"><defs
   id="defs15" /><sodipodi:namedview
   id="namedview13"
   pagecolor="#ffffff"
   bordercolor="#000000"
   borderopacity="0.25"
   inkscape:showpageshadow="2"
   inkscape:pageopacity="0.0"
   inkscape:pagecheckerboard="0"
   inkscape:deskcolor="#d1d1d1"
   showgrid="false"
   inkscape:zoom="0.78665629"
   inkscape:cx="720.77222"
   inkscape:cy="146.82397"
   inkscape:window-width="1350"
   inkscape:window-height="2371"
   inkscape:window-x="2391"
   inkscape:window-y="-9"
   inkscape:window-maximized="1"
   inkscape:current-layer="Capa_1" />
<g
   id="g10"
   transform="matrix(1,0,0,0.63229608,0,174.28292)">
	<g
   id="g8">
		<path
   d="m 235.968,52.552 c 0.39,9.688 0.778,19.376 1.169,29.064 -7.543,0 -11.313,0 -18.855,0 0.389,-9.688 0.779,-19.376 1.167,-29.064 -15.295,0 -30.589,0 -45.884,0 -30.747,116.771 -61.499,233.539 -92.245,350.312 41.352,0 82.704,0 124.055,0 0.389,-9.689 0.778,-19.377 1.168,-29.064 14.111,0 28.222,0 42.332,0 0.392,9.688 0.78,19.375 1.168,29.064 41.352,0 82.703,0 124.055,0 C 343.351,286.093 312.6,169.324 281.853,52.552 c -15.294,0 -30.589,0 -45.885,0 z m -19.437,72.581 c 7.451,0 14.902,-0.004 22.354,-0.002 1.082,26.939 2.163,53.88 3.247,80.818 -9.616,0 -19.231,0 -28.848,0 1.086,-26.937 2.166,-53.877 3.247,-80.816 z m -8.241,205.149 c 1.081,-26.938 2.165,-53.877 3.247,-80.815 10.781,0 21.562,-0.002 32.342,-0.002 1.083,26.938 2.166,53.879 3.247,80.817 -12.944,0 -25.891,0 -38.836,0 z"
   id="path2" />
		<path
   d="m 311.929,52.552 c -6.248,0 -9.373,0 -15.621,0 38.961,116.771 77.913,233.541 116.876,350.312 14.077,0 28.155,0 42.232,0 C 407.589,286.091 359.759,169.323 311.929,52.552 Z"
   id="path4" />
		<path
   d="M 143.487,52.552 C 95.657,169.324 47.826,286.091 0,402.864 c 14.078,0 28.155,0 42.233,0 38.958,-116.771 77.915,-233.54 116.875,-350.312 -6.248,0 -9.373,0 -15.621,0 z"
   id="path6" />
	</g>
</g>
<g
   style="fill:#000000"
   id="g207"
   transform="matrix(0.73051338,0,0,0.54108196,81.773342,3.6694105)"><g
     id="g191">
	<path
   d="M 110.164,319.595 H 89.666 V 186.447 c 0,-4.962 -4.038,-9 -9,-9 H 52.668 c -4.962,0 -9,4.038 -9,9 V 319.595 H 23.169 c -4.962,0 -9,4.038 -9,9 v 20.499 c 0,4.962 4.038,9 9,9 h 86.995 c 4.962,0 9,-4.038 9,-9 v -20.499 c 0,-4.962 -4.037,-9 -9,-9 z"
   id="path175" />
	<path
   d="M 376.371,319.595 H 355.872 V 186.447 c 0,-4.962 -4.038,-9 -9,-9 h -27.998 c -4.962,0 -9,4.038 -9,9 v 133.148 h -20.499 c -4.962,0 -9,4.038 -9,9 v 20.499 c 0,4.962 4.038,9 9,9 h 86.995 c 4.962,0 9,-4.038 9,-9 v -20.499 c 10e-4,-4.962 -4.037,-9 -8.999,-9 z"
   id="path177" />
	<path
   d="m 5.424,95.442 c 0,0 0,0 0,0 1.089,0 3.161,-0.352 4.816,-2.702 L 39.658,50.96 c 1.393,-1.978 1.608,-4.347 0.575,-6.336 -1.032,-1.989 -3.093,-3.177 -5.512,-3.177 H 7 c -3.86,0 -7,3.14 -7,7 v 41.051 c 0,3.86 2.794,5.944 5.424,5.944 z"
   id="path179" />
	<path
   d="m 112.697,159.191 c 1.005,2.039 3.076,3.255 5.539,3.255 h 62.871 c 2.672,0 5.559,-1.424 7.184,-3.542 L 271.055,51.076 c 1.5,-1.955 1.795,-4.338 0.79,-6.375 -1.005,-2.038 -3.076,-3.254 -5.539,-3.254 h -62.872 c -2.67,0 -5.557,1.423 -7.184,3.542 l -82.763,107.827 c -1.499,1.953 -1.795,4.337 -0.79,6.375 z"
   id="path181" />
	<path
   d="m 228.49,159.191 c 1.005,2.039 3.076,3.255 5.54,3.255 h 62.87 c 2.671,0 5.559,-1.424 7.184,-3.542 L 386.848,51.076 c 1.499,-1.955 1.795,-4.338 0.79,-6.375 -1.005,-2.038 -3.076,-3.254 -5.539,-3.254 h -62.871 c -2.67,0 -5.557,1.423 -7.184,3.542 l -82.763,107.827 c -1.5,1.953 -1.796,4.337 -0.791,6.375 z"
   id="path183" />
	<path
   d="M 72.498,158.904 155.262,51.076 c 1.5,-1.954 1.795,-4.338 0.79,-6.375 -1.005,-2.038 -3.075,-3.254 -5.538,-3.254 H 87.643 c -2.666,0 -5.551,1.418 -7.181,3.529 L 2.263,146.338 C 0.909,148.093 0,150.76 0,152.976 v 2.471 c 0,3.86 3.14,7 7,7 h 58.314 c 2.672,-0.001 5.559,-1.425 7.184,-3.543 z"
   id="path185" />
	<path
   d="m 394.039,97.115 c -1.006,0 -2.945,0.303 -4.625,2.33 l -44.165,53.27 c -1.599,1.928 -1.969,4.323 -0.991,6.405 0.979,2.083 3.058,3.326 5.563,3.326 h 42.719 c 3.86,0 7,-3.14 7,-7 v -52.35 c 0,-3.885 -2.834,-5.981 -5.501,-5.981 z"
   id="path187" />
	<path
   d="M 292.283,259.77 V 247.1 c 0,-7.168 -5.832,-13 -13,-13 H 120.257 c -7.168,0 -13,5.832 -13,13 v 12.67 c 0,7.169 5.832,13 13,13 h 159.026 c 7.169,0 13,-5.831 13,-13 z"
   id="path189" />
</g></g></svg>
